<?xml version="1.0" encoding="utf-8"?>
<!-- Generator: Adobe Illustrator 15.1.0, SVG Export Plug-In . SVG Version: 6.00 Build 0)  -->
<!DOCTYPE svg PUBLIC "-//W3C//DTD SVG 1.1//EN" "http://www.w3.org/Graphics/SVG/1.1/DTD/svg11.dtd">
<svg version="1.1" id="Layer_1" xmlns="http://www.w3.org/2000/svg" xmlns:xlink="http://www.w3.org/1999/xlink" x="0px" y="0px"
	 width="300px" height="412px" viewBox="0 0 300 412" enable-background="new 0 0 300 412" xml:space="preserve">
<g>
	<g>
		<path fill="#FFFFFF" d="M19.406,2.479h261.182c9.311,0,16.93,7.586,16.93,16.859v373.331c0,9.276-7.619,16.862-16.93,16.862
			H19.406c-9.31,0-16.927-7.586-16.927-16.862V19.338C2.479,10.064,10.096,2.479,19.406,2.479L19.406,2.479z"/>
		<path fill="#C6C6C6" d="M280.588,412H19.406C8.706,412,0,403.328,0,392.669V19.338C0,8.681,8.706,0.01,19.406,0.01h261.182
			c10.703,0,19.41,8.671,19.41,19.328v373.331C299.998,403.328,291.291,412,280.588,412z M19.406,4.947
			c-7.967,0-14.448,6.456-14.448,14.391v373.331c0,7.937,6.481,14.394,14.448,14.394h261.182c7.969,0,14.451-6.457,14.451-14.394
			V19.338c0-7.935-6.482-14.391-14.451-14.391H19.406z"/>
	</g>
	<g>
		<path fill-rule="evenodd" clip-rule="evenodd" d="M146.995,326.627c0.078-3.035-0.406-3.421-2.481-2.595l-16.674,13.814
			c-33.683,26.972-84.188-12.821-47.078-56.202c26.615-25.103,51.213-48.794,69.968-73.334
			c18.514,22.468,39.075,45.373,65.385,70.07c18.754,18.077,23.406,37.368,9.797,57.388c-26.07,20.014-48.807,9.869-66.018-7.566
			c-2.324-2.354-5.541-7.835-5.695-1.11c2.895,27.324,11.604,36.531,35.586,47.891l-76.964-0.156
			C137.644,362.751,145.625,353.867,146.995,326.627L146.995,326.627z"/>
	</g>
	<g>
		<path fill-rule="evenodd" clip-rule="evenodd" d="M58.633,158.98c0.037-1.375-0.184-1.549-1.125-1.176l-7.555,6.258
			c-15.26,12.223-38.142-5.808-21.33-25.464c12.06-11.372,23.204-22.107,31.702-33.225c8.388,10.18,17.706,20.56,29.624,31.748
			c8.498,8.192,10.607,16.93,4.438,26.001c-11.809,9.068-22.111,4.472-29.909-3.427c-1.055-1.067-2.512-3.55-2.583-0.504
			c1.312,12.382,5.258,16.552,16.124,21.7l-34.871-0.072C54.398,175.348,58.013,171.322,58.633,158.98L58.633,158.98z"/>
	</g>
	<g>
		<path d="M82.445,80.367v13.182H34.765c0.527-4.981,2.066-9.7,4.658-14.165c2.58-4.464,7.682-10.375,15.281-17.75
			c6.149-5.946,9.897-9.997,11.286-12.115c1.866-2.931,2.809-5.826,2.809-8.688c0-3.154-0.811-5.581-2.446-7.289
			c-1.636-1.706-3.884-2.549-6.758-2.549c-2.841,0-5.086,0.895-6.773,2.67c-1.669,1.793-2.644,4.758-2.908,8.894l-13.547-1.415
			c0.811-7.806,3.337-13.406,7.6-16.818c4.264-3.397,9.582-5.103,15.977-5.103c7.004,0,12.506,1.983,16.503,5.912
			c4,3.946,5.999,8.841,5.999,14.7c0,3.326-0.578,6.496-1.718,9.511c-1.143,3.019-2.959,6.172-5.437,9.463
			c-1.653,2.189-4.624,5.342-8.904,9.446c-4.297,4.101-7.021,6.84-8.162,8.184c-1.139,1.344-2.083,2.655-2.792,3.931H82.445
			L82.445,80.367z"/>
	</g>
</g>
</svg>
