<?xml version="1.0" encoding="utf-8"?>
<!-- Generator: Adobe Illustrator 15.1.0, SVG Export Plug-In . SVG Version: 6.00 Build 0)  -->
<!DOCTYPE svg PUBLIC "-//W3C//DTD SVG 1.1//EN" "http://www.w3.org/Graphics/SVG/1.1/DTD/svg11.dtd">
<svg version="1.1" id="Layer_1" xmlns="http://www.w3.org/2000/svg" xmlns:xlink="http://www.w3.org/1999/xlink" x="0px" y="0px"
	 width="300px" height="412px" viewBox="0 0 300 412" enable-background="new 0 0 300 412" xml:space="preserve">
<g>
	<g>
		<path fill="#FFFFFF" d="M19.407,2.471h261.185c9.312,0,16.928,7.586,16.928,16.861V392.67c0,9.274-7.615,16.861-16.928,16.861
			H19.407c-9.312,0-16.928-7.587-16.928-16.861V19.332C2.479,10.057,10.096,2.471,19.407,2.471L19.407,2.471z"/>
		<path fill="#C6C6C6" d="M280.592,412H19.407C8.706,412,0,403.329,0,392.67V19.332C0,8.674,8.706,0.002,19.407,0.002h261.185
			c10.701,0,19.406,8.672,19.406,19.33V392.67C299.998,403.329,291.293,412,280.592,412z M19.407,4.94
			c-7.968,0-14.45,6.457-14.45,14.392V392.67c0,7.937,6.482,14.393,14.45,14.393h261.185c7.969,0,14.449-6.456,14.449-14.393V19.332
			c0-7.936-6.48-14.392-14.449-14.392H19.407z"/>
	</g>
	<g>
		<path d="M36.181,76.452l14.065-1.455c0.394,3.204,1.596,5.747,3.569,7.616c1.973,1.887,4.254,2.823,6.826,2.823
			c2.951,0,5.456-1.213,7.498-3.619c2.04-2.422,3.069-6.075,3.069-10.941c0-4.551-1.011-7.978-3.053-10.264
			c-2.024-2.285-4.666-3.427-7.908-3.427c-4.048,0-7.685,1.817-10.91,5.434l-11.459-1.68l7.239-38.688h37.345v13.328H55.822
			l-2.214,12.637c3.156-1.593,6.364-2.388,9.658-2.388c6.261,0,11.579,2.301,15.919,6.889c4.357,4.604,6.536,10.577,6.536,17.917
			c0,6.109-1.749,11.579-5.267,16.375c-4.802,6.56-11.44,9.833-19.95,9.833c-6.809,0-12.35-1.835-16.639-5.523
			C39.577,87.633,37.003,82.682,36.181,76.452L36.181,76.452z"/>
	</g>
	<g>
		<path fill-rule="evenodd" clip-rule="evenodd" d="M189.104,377.791l-75.451-0.796c27.258-13.933,34.53-29.841,33.234-55.778
			c-0.182-3.687-0.405-6.941-0.704-7.443c-1.232-2.066-14.085,11.115-15.412,12.908c-10.034,13.553-55.068,24.463-64.388-11.256
			c-6.707-25.699,17.838-41.126,41.552-37.74c4.986,0.711,14.004,5.342,21.018,11.603c6.585,5.88,9.839,12.621,15.831,12.896
			c9.139,0.418-5.807-21.535-11.267-27.334c-23.365-24.819-17.647-66.631,19.064-66.631c35.559,0,40.043,36.249,17.262,65.196
			c-4.584,5.821-18.426,22.923-11.34,28.237c1.703,1.276,6.857-1.499,12.018-7.077c9.184-9.928,22.711-18.547,36.738-18.547
			c15.281,0,29.086,10.062,31.209,25.692c3.203,23.558-10.338,38.05-33.164,39.415c-23.221,1.386-40.025-27.368-46.207-27.368
			c-1.146,0-1.615,3.256-1.773,6.853C156.02,350.912,163.459,362.318,189.104,377.791L189.104,377.791z"/>
	</g>
	<g>
		<path fill-rule="evenodd" clip-rule="evenodd" d="M78.741,180.363l-35.734-0.359c12.909-6.271,16.353-13.43,15.74-25.105
			c-0.088-1.658-0.193-3.124-0.334-3.35c-0.583-0.932-6.671,5.002-7.298,5.809c-4.753,6.101-26.081,11.011-30.495-5.066
			c-3.176-11.565,8.448-18.51,19.68-16.986c2.36,0.322,6.63,2.405,9.953,5.224c3.118,2.646,4.661,5.679,7.497,5.804
			c4.329,0.188-2.75-9.692-5.335-12.303c-11.064-11.171-8.356-29.989,9.029-29.989c16.839,0,18.963,16.315,8.174,29.342
			c-2.17,2.622-8.726,10.317-5.371,12.711c0.806,0.574,3.249-0.674,5.692-3.185c4.349-4.469,10.755-8.349,17.399-8.349
			c7.238,0,13.774,4.529,14.78,11.565c1.517,10.602-4.896,17.124-15.706,17.738c-10.998,0.625-18.957-12.317-21.883-12.317
			c-0.543,0-0.767,1.466-0.839,3.084C63.072,168.264,66.597,173.396,78.741,180.363L78.741,180.363z"/>
	</g>
</g>
</svg>
