<?xml version="1.0" encoding="utf-8"?>
<!-- Generator: Adobe Illustrator 15.1.0, SVG Export Plug-In . SVG Version: 6.00 Build 0)  -->
<!DOCTYPE svg PUBLIC "-//W3C//DTD SVG 1.1//EN" "http://www.w3.org/Graphics/SVG/1.1/DTD/svg11.dtd">
<svg version="1.1" id="Layer_1" xmlns="http://www.w3.org/2000/svg" xmlns:xlink="http://www.w3.org/1999/xlink" x="0px" y="0px"
	 width="300px" height="412px" viewBox="0 0 300 412" enable-background="new 0 0 300 412" xml:space="preserve">
<g>
	<g>
		<path fill="#FFFFFF" d="M19.409,2.473h261.185c9.311,0,16.928,7.587,16.928,16.861v373.337c0,9.274-7.617,16.86-16.928,16.86
			H19.409c-9.311,0-16.93-7.586-16.93-16.86V19.334C2.479,10.06,10.098,2.473,19.409,2.473L19.409,2.473z"/>
		<path fill="#C6C6C6" d="M280.594,412H19.409C8.707,412,0,403.329,0,392.671V19.334C0,8.676,8.707,0.004,19.409,0.004h261.185
			c10.701,0,19.406,8.672,19.406,19.33v373.337C300,403.329,291.295,412,280.594,412z M19.409,4.942
			c-7.968,0-14.451,6.457-14.451,14.392v373.337c0,7.936,6.483,14.392,14.451,14.392h261.185c7.967,0,14.449-6.456,14.449-14.392
			V19.334c0-7.936-6.482-14.392-14.449-14.392H19.409z"/>
	</g>
	<g>
		<path fill="#E30613" d="M33.947,76.454l13.857-1.455c0.388,3.203,1.574,5.747,3.515,7.616c1.944,1.887,4.192,2.823,6.727,2.823
			c2.909,0,5.375-1.213,7.385-3.619c2.013-2.422,3.025-6.076,3.025-10.941c0-4.551-0.996-7.979-3.006-10.264
			c-1.996-2.285-4.597-3.427-7.792-3.427c-3.988,0-7.571,1.817-10.746,5.434l-11.292-1.68l7.132-38.687h36.791v13.327H53.298
			l-2.18,12.638c3.11-1.594,6.271-2.389,9.514-2.389c6.169,0,11.407,2.301,15.683,6.889c4.294,4.604,6.441,10.577,6.441,17.917
			c0,6.109-1.724,11.579-5.188,16.375c-4.731,6.56-11.274,9.832-19.657,9.832c-6.707,0-12.167-1.834-16.391-5.522
			C37.293,87.635,34.759,82.684,33.947,76.454L33.947,76.454z"/>
	</g>
	<g>
		<path fill-rule="evenodd" clip-rule="evenodd" fill="#E30613" d="M150.011,208.22c23.061,29.565,51.256,56.674,82.334,82.397
			c-30.229,26.658-60.197,53.396-82.334,82.638c-30.709-36.595-59.262-60.453-84.036-82.638
			C90.31,269.27,119.231,242.616,150.011,208.22L150.011,208.22z"/>
	</g>
	<g>
		<path fill-rule="evenodd" clip-rule="evenodd" fill="#E30613" d="M61.687,104.047c10.015,12.841,22.261,24.614,35.758,35.787
			c-13.128,11.578-26.143,23.191-35.758,35.891c-13.338-15.894-25.738-26.254-36.496-35.891
			C35.759,130.561,48.318,118.986,61.687,104.047L61.687,104.047z"/>
	</g>
</g>
</svg>
