<?xml version="1.0" encoding="utf-8"?>
<!-- Generator: Adobe Illustrator 15.1.0, SVG Export Plug-In . SVG Version: 6.00 Build 0)  -->
<!DOCTYPE svg PUBLIC "-//W3C//DTD SVG 1.1//EN" "http://www.w3.org/Graphics/SVG/1.1/DTD/svg11.dtd">
<svg version="1.1" id="Layer_1" xmlns="http://www.w3.org/2000/svg" xmlns:xlink="http://www.w3.org/1999/xlink" x="0px" y="0px"
	 width="300px" height="412px" viewBox="0 0 300 412" enable-background="new 0 0 300 412" xml:space="preserve">
<g>
	<g>
		<path fill="#FFFFFF" d="M19.409,2.479h261.183c9.309,0,16.926,7.586,16.926,16.859v373.333c0,9.273-7.617,16.86-16.926,16.86
			H19.409c-9.311,0-16.93-7.587-16.93-16.86V19.338C2.479,10.064,10.098,2.479,19.409,2.479L19.409,2.479z"/>
		<path fill="#C6C6C6" d="M280.592,412H19.409C8.707,412,0,403.329,0,392.671V19.338C0,8.681,8.707,0.01,19.409,0.01h261.183
			c10.701,0,19.406,8.671,19.406,19.328v373.333C299.998,403.329,291.293,412,280.592,412z M19.409,4.947
			c-7.968,0-14.451,6.456-14.451,14.391v373.333c0,7.936,6.483,14.392,14.451,14.392h261.183c7.967,0,14.447-6.456,14.447-14.392
			V19.338c0-7.935-6.48-14.391-14.447-14.391H19.409z"/>
	</g>
	<g>
		<path fill-rule="evenodd" clip-rule="evenodd" d="M151.154,324.862c0.08-2.974-0.396-3.35-2.429-2.542l-16.339,13.536
			c-32.998,26.425-82.481-12.563-46.122-55.066c26.076-24.596,50.175-47.807,68.554-71.85
			c18.139,22.013,38.283,44.458,64.061,68.652c18.371,17.714,22.93,36.613,9.598,56.227c-25.545,19.608-47.82,9.67-64.682-7.413
			c-2.279-2.307-5.432-7.678-5.578-1.088c2.834,26.772,11.367,35.791,34.865,46.92l-75.409-0.15
			C141.996,360.255,149.813,351.552,151.154,324.862L151.154,324.862z"/>
	</g>
	<g>
		<path d="M50.546,53.023c-3.714-1.61-6.413-3.828-8.085-6.635c-1.69-2.807-2.529-5.901-2.529-9.245
			c0-5.723,1.937-10.462,5.837-14.2c3.904-3.736,9.446-5.614,16.624-5.614c7.107,0,12.628,1.878,16.55,5.614
			c3.937,3.738,5.906,8.477,5.906,14.2c0,3.559-0.906,6.726-2.718,9.515c-1.794,2.771-4.337,4.901-7.597,6.366
			c4.147,1.698,7.3,4.202,9.462,7.493c2.16,3.274,3.241,7.064,3.241,11.357c0,7.098-2.197,12.858-6.603,17.292
			c-4.408,4.437-10.262,6.653-17.582,6.653c-6.812,0-12.472-1.824-17.003-5.489c-5.349-4.346-8.014-10.284-8.014-17.83
			c0-4.149,1.009-7.958,3.013-11.446C43.053,57.584,46.226,54.901,50.546,53.023L50.546,53.023z M53.505,38.2
			c0,2.932,0.802,5.22,2.424,6.849c1.619,1.643,3.762,2.467,6.463,2.467c2.719,0,4.896-0.824,6.531-2.486
			c1.622-1.665,2.441-3.954,2.441-6.885c0-2.772-0.802-4.972-2.421-6.635c-1.622-1.665-3.747-2.486-6.412-2.486
			c-2.753,0-4.947,0.84-6.585,2.503C54.324,33.209,53.505,35.426,53.505,38.2L53.505,38.2z M52.182,71.085
			c0,4.06,1.012,7.225,3.033,9.498c2.021,2.27,4.547,3.396,7.578,3.396c2.962,0,5.417-1.09,7.353-3.271
			c1.934-2.184,2.909-5.332,2.909-9.462c0-3.594-0.993-6.491-2.962-8.673c-1.967-2.181-4.476-3.273-7.51-3.273
			c-3.501,0-6.115,1.253-7.821,3.72C53.035,65.508,52.182,68.188,52.182,71.085L52.182,71.085z"/>
	</g>
	<g>
		<path fill-rule="evenodd" clip-rule="evenodd" d="M61.054,156.6c0.037-1.377-0.184-1.55-1.125-1.177l-7.555,6.26
			c-15.26,12.219-38.142-5.811-21.33-25.464c12.059-11.374,23.203-22.109,31.702-33.227c8.388,10.179,17.706,20.558,29.624,31.747
			c8.498,8.192,10.606,16.932,4.438,26.003c-11.809,9.067-22.111,4.471-29.91-3.429c-1.054-1.065-2.512-3.549-2.583-0.503
			c1.312,12.38,5.258,16.554,16.124,21.698l-34.87-0.069C56.818,172.966,60.433,168.94,61.054,156.6L61.054,156.6z"/>
	</g>
</g>
</svg>
