<?xml version="1.0" encoding="utf-8"?>
<!-- Generator: Adobe Illustrator 15.1.0, SVG Export Plug-In . SVG Version: 6.00 Build 0)  -->
<!DOCTYPE svg PUBLIC "-//W3C//DTD SVG 1.1//EN" "http://www.w3.org/Graphics/SVG/1.1/DTD/svg11.dtd">
<svg version="1.1" id="Layer_1" xmlns="http://www.w3.org/2000/svg" xmlns:xlink="http://www.w3.org/1999/xlink" x="0px" y="0px"
	 width="300px" height="412px" viewBox="0 0 300 412" enable-background="new 0 0 300 412" xml:space="preserve">
<g>
	<g>
		<path fill="#FFFFFF" d="M19.408,2.475h261.186c9.311,0,16.926,7.586,16.926,16.86v373.337c0,9.272-7.615,16.859-16.926,16.859
			H19.408c-9.312,0-16.929-7.587-16.929-16.859V19.335C2.479,10.061,10.095,2.475,19.408,2.475L19.408,2.475z"/>
		<path fill="#C6C6C6" d="M280.594,412H19.408C8.706,412,0,403.33,0,392.672V19.335C0,8.677,8.706,0.006,19.408,0.006h261.186
			c10.701,0,19.404,8.671,19.404,19.329v373.337C299.998,403.33,291.295,412,280.594,412z M19.408,4.944
			c-7.968,0-14.45,6.456-14.45,14.391v373.337c0,7.935,6.482,14.391,14.45,14.391h261.186c7.967,0,14.447-6.456,14.447-14.391
			V19.335c0-7.935-6.48-14.391-14.447-14.391H19.408z"/>
	</g>
	<g>
		<path fill-rule="evenodd" clip-rule="evenodd" fill="#E30613" d="M152.43,206.572c23.061,29.566,51.256,56.673,82.334,82.401
			c-30.229,26.656-60.197,53.396-82.334,82.635c-30.71-36.595-59.262-60.452-84.036-82.635
			C92.728,267.622,121.649,240.969,152.43,206.572L152.43,206.572z"/>
	</g>
	<g>
		<polygon fill="#E30613" points="37.976,92.724 37.976,17.009 53.584,17.009 53.584,50.628 85.127,17.009 106.119,17.009 
			77.008,46.502 107.704,92.724 87.503,92.724 66.258,57.186 53.584,69.844 53.584,92.724 37.976,92.724 		"/>
	</g>
	<g>
		<path fill-rule="evenodd" clip-rule="evenodd" fill="#E30613" d="M72.232,102.103c10.319,13.457,22.934,25.792,36.839,37.5
			c-13.522,12.132-26.934,24.304-36.839,37.61c-13.74-16.655-26.514-27.514-37.598-37.61
			C45.522,129.888,58.46,117.759,72.232,102.103L72.232,102.103z"/>
	</g>
</g>
</svg>
