<?xml version="1.0" encoding="utf-8"?>
<!-- Generator: Adobe Illustrator 15.1.0, SVG Export Plug-In . SVG Version: 6.00 Build 0)  -->
<!DOCTYPE svg PUBLIC "-//W3C//DTD SVG 1.1//EN" "http://www.w3.org/Graphics/SVG/1.1/DTD/svg11.dtd">
<svg version="1.1" id="Layer_1" xmlns="http://www.w3.org/2000/svg" xmlns:xlink="http://www.w3.org/1999/xlink" x="0px" y="0px"
	 width="300px" height="412px" viewBox="0 0 300 412" enable-background="new 0 0 300 412" xml:space="preserve">
<g>
	<g>
		<path fill="#FFFFFF" d="M19.407,2.473h261.185c9.312,0,16.928,7.586,16.928,16.861v373.338c0,9.273-7.615,16.859-16.928,16.859
			H19.407c-9.312,0-16.928-7.586-16.928-16.859V19.334C2.479,10.059,10.096,2.473,19.407,2.473L19.407,2.473z"/>
		<path fill="#C6C6C6" d="M280.592,412H19.407C8.706,412,0,403.33,0,392.672V19.334C0,8.676,8.706,0.004,19.407,0.004h261.185
			c10.701,0,19.406,8.672,19.406,19.33v373.338C299.998,403.33,291.293,412,280.592,412z M19.407,4.942
			c-7.968,0-14.45,6.457-14.45,14.392v373.338c0,7.935,6.482,14.391,14.45,14.391h261.185c7.969,0,14.449-6.456,14.449-14.391
			V19.334c0-7.936-6.48-14.392-14.449-14.392H19.407z"/>
	</g>
	<g>
		<path fill-rule="evenodd" clip-rule="evenodd" d="M188.801,378.202l-75.453-0.795c27.258-13.932,34.53-29.839,33.236-55.776
			c-0.185-3.688-0.407-6.943-0.706-7.445c-1.23-2.068-14.083,11.116-15.412,12.907c-10.033,13.554-55.066,24.463-64.387-11.256
			c-6.708-25.7,17.838-41.126,41.551-37.741c4.986,0.712,14.004,5.343,21.017,11.604c6.585,5.882,9.84,12.621,15.832,12.896
			c9.139,0.416-5.808-21.535-11.267-27.334c-23.363-24.82-17.647-66.633,19.064-66.633c35.557,0,40.043,36.253,17.26,65.199
			c-4.582,5.82-18.424,22.922-11.338,28.236c1.703,1.276,6.859-1.5,12.018-7.076c9.186-9.928,22.711-18.547,36.736-18.547
			c15.283,0,29.09,10.06,31.213,25.693c3.201,23.556-10.34,38.048-33.164,39.412c-23.225,1.389-40.025-27.367-46.209-27.367
			c-1.148,0-1.617,3.255-1.771,6.854C155.715,351.326,163.158,362.73,188.801,378.202L188.801,378.202z"/>
	</g>
	<g>
		<path fill-rule="evenodd" clip-rule="evenodd" d="M86.898,180.186l-35.734-0.356c12.91-6.27,16.353-13.43,15.741-25.105
			c-0.088-1.661-0.193-3.126-0.334-3.352c-0.583-0.929-6.67,5.003-7.298,5.812c-4.752,6.098-26.081,11.011-30.494-5.066
			c-3.177-11.568,8.448-18.51,19.679-16.986c2.36,0.321,6.631,2.404,9.953,5.222c3.118,2.648,4.66,5.68,7.497,5.805
			c4.329,0.188-2.75-9.693-5.335-12.302c-11.066-11.172-8.359-29.99,9.029-29.99c16.838,0,18.963,16.315,8.174,29.342
			c-2.17,2.622-8.726,10.317-5.371,12.709c0.807,0.577,3.249-0.675,5.692-3.185c4.349-4.467,10.755-8.346,17.399-8.346
			c7.238,0,13.774,4.529,14.781,11.561c1.517,10.603-4.897,17.128-15.707,17.74c-10.998,0.624-18.957-12.316-21.883-12.316
			c-0.545,0-0.767,1.466-0.839,3.084C71.229,168.091,74.753,173.224,86.898,180.186L86.898,180.186z"/>
	</g>
	<g>
		<path d="M99.976,83.347c3.676,2.625,7.701,4.731,12.035,6.271l-5.53,10.587c-2.272-0.674-4.493-1.607-6.661-2.781
			c-0.486-0.24-3.816-2.434-10.006-6.582c-4.891,2.126-10.286,3.179-16.216,3.179c-11.446,0-20.412-3.351-26.898-10.071
			c-6.487-6.703-9.73-16.133-9.73-28.276c0-12.124,3.243-21.537,9.747-28.274c6.503-6.72,15.331-10.087,26.481-10.087
			c11.03,0,19.789,3.368,26.258,10.087c6.469,6.737,9.712,16.15,9.712,28.274c0,6.41-0.901,12.039-2.688,16.895
			C105.11,76.282,102.941,79.873,99.976,83.347L99.976,83.347z M87.871,74.899c1.943-2.262,3.382-4.992,4.353-8.202
			c0.955-3.196,1.439-6.875,1.439-11.022c0-8.583-1.89-14.975-5.688-19.208c-3.797-4.229-8.758-6.355-14.88-6.355
			c-6.139,0-11.1,2.126-14.916,6.375c-3.816,4.25-5.722,10.638-5.722,19.188c0,8.653,1.906,15.15,5.722,19.45
			c3.815,4.3,8.619,6.459,14.448,6.459c2.167,0,4.231-0.36,6.155-1.069c-3.051-1.987-6.155-3.541-9.295-4.665l4.215-8.548
			C78.644,68.993,83.379,71.514,87.871,74.899L87.871,74.899z"/>
	</g>
</g>
</svg>
