<?xml version="1.0" encoding="utf-8"?>
<!-- Generator: Adobe Illustrator 15.1.0, SVG Export Plug-In . SVG Version: 6.00 Build 0)  -->
<!DOCTYPE svg PUBLIC "-//W3C//DTD SVG 1.1//EN" "http://www.w3.org/Graphics/SVG/1.1/DTD/svg11.dtd">
<svg version="1.1" id="Layer_1" xmlns="http://www.w3.org/2000/svg" xmlns:xlink="http://www.w3.org/1999/xlink" x="0px" y="0px"
	 width="300px" height="412px" viewBox="0 0 300 412" enable-background="new 0 0 300 412" xml:space="preserve">
<g>
	<path fill="#FFFFFF" d="M19.409,2.479h261.183c9.311,0,16.927,7.586,16.927,16.861v373.332c0,9.273-7.616,16.859-16.927,16.859
		H19.409c-9.311,0-16.93-7.586-16.93-16.859V19.34C2.479,10.064,10.098,2.479,19.409,2.479L19.409,2.479z"/>
	<path fill="#C6C6C6" d="M280.591,412H19.409C8.707,412,0,403.33,0,392.672V19.34C0,8.681,8.707,0.01,19.409,0.01h261.183
		c10.701,0,19.406,8.671,19.406,19.33v373.332C299.998,403.33,291.292,412,280.591,412z M19.409,4.947
		c-7.968,0-14.451,6.457-14.451,14.393v373.332c0,7.936,6.483,14.391,14.451,14.391h261.183c7.967,0,14.448-6.455,14.448-14.391
		V19.34c0-7.936-6.481-14.393-14.448-14.393H19.409z"/>
</g>
<g>
	<path d="M149.718,323.137c0.08-3.039-0.406-3.419-2.48-2.599l-16.675,13.817c-33.68,26.969-84.185-12.823-47.078-56.201
		c26.617-25.105,51.213-48.797,69.969-73.333c18.514,22.465,39.073,45.375,65.384,70.07c18.752,18.078,23.406,37.367,9.801,57.389
		c-26.072,20.013-48.811,9.867-66.021-7.569c-2.322-2.353-5.54-7.834-5.693-1.108c2.895,27.326,11.604,36.53,35.585,47.89
		l-76.963-0.154C140.369,359.259,148.349,350.377,149.718,323.137L149.718,323.137z"/>
</g>
<g>
	<path d="M67.111,155.151c0.037-1.377-0.181-1.55-1.122-1.177l-7.555,6.259c-15.259,12.22-38.142-5.81-21.332-25.464
		c12.062-11.375,23.205-22.106,31.704-33.228c8.388,10.181,17.703,20.56,29.624,31.749c8.496,8.19,10.604,16.931,4.438,26.002
		c-11.812,9.066-22.114,4.47-29.913-3.43c-1.051-1.065-2.512-3.549-2.58-0.502c1.31,12.381,5.256,16.554,16.124,21.698
		l-34.873-0.069C62.877,171.516,66.494,167.493,67.111,155.151L67.111,155.151z"/>
</g>
<g>
	<path d="M49.796,89.958H35.411V43.963h-17.83V33.124C27.61,33.327,36.83,29.883,38.35,19.042h11.447L49.796,89.958L49.796,89.958z"
		/>
	<path d="M86.369,17.624c14.184,0,26.137,8.915,26.137,36.572c0,28.266-11.954,37.18-26.137,37.18
		c-13.98,0-25.935-8.915-25.935-37.18C60.435,26.539,72.389,17.624,86.369,17.624z M86.369,79.523
		c11.752,0,11.752-17.323,11.752-25.327c0-7.396,0-24.719-11.752-24.719C74.82,29.477,74.82,46.8,74.82,54.196
		C74.82,62.2,74.82,79.523,86.369,79.523z"/>
</g>
</svg>
