<?xml version="1.0" encoding="utf-8"?>
<!-- Generator: Adobe Illustrator 15.1.0, SVG Export Plug-In . SVG Version: 6.00 Build 0)  -->
<!DOCTYPE svg PUBLIC "-//W3C//DTD SVG 1.1//EN" "http://www.w3.org/Graphics/SVG/1.1/DTD/svg11.dtd">
<svg version="1.1" id="Layer_1" xmlns="http://www.w3.org/2000/svg" xmlns:xlink="http://www.w3.org/1999/xlink" x="0px" y="0px"
	 width="300px" height="412px" viewBox="0 0 300 412" enable-background="new 0 0 300 412" xml:space="preserve">
<g>
	<g>
		<path fill="#FFFFFF" d="M19.407,2.473h261.185c9.312,0,16.928,7.586,16.928,16.859v373.337c0,9.275-7.615,16.862-16.928,16.862
			H19.407c-9.312,0-16.928-7.587-16.928-16.862V19.332C2.479,10.059,10.096,2.473,19.407,2.473L19.407,2.473z"/>
		<path fill="#C6C6C6" d="M280.592,412H19.407C8.706,412,0,403.328,0,392.669V19.332C0,8.675,8.706,0.004,19.407,0.004h261.185
			c10.701,0,19.406,8.671,19.406,19.328v373.337C299.998,403.328,291.293,412,280.592,412z M19.407,4.942
			c-7.968,0-14.45,6.456-14.45,14.39v373.337c0,7.937,6.482,14.394,14.45,14.394h261.185c7.969,0,14.449-6.457,14.449-14.394V19.332
			c0-7.935-6.48-14.39-14.449-14.39H19.407z"/>
	</g>
	<g>
		<path d="M85.041,80.361v13.183H35.102c0.555-4.98,2.163-9.701,4.88-14.165c2.7-4.464,8.046-10.377,16.005-17.75
			c6.438-5.947,10.366-9.997,11.818-12.116c1.956-2.931,2.941-5.826,2.941-8.688c0-3.154-0.847-5.582-2.56-7.291
			c-1.713-1.705-4.066-2.549-7.078-2.549c-2.977,0-5.329,0.895-7.094,2.671c-1.747,1.792-2.769,4.757-3.045,8.894l-14.19-1.415
			c0.849-7.807,3.497-13.407,7.96-16.819c4.465-3.396,10.037-5.103,16.732-5.103c7.336,0,13.1,1.983,17.287,5.912
			c4.189,3.946,6.281,8.841,6.281,14.701c0,3.324-0.605,6.496-1.799,9.51c-1.195,3.019-3.097,6.171-5.692,9.464
			c-1.73,2.188-4.846,5.342-9.328,9.445c-4.499,4.103-7.354,6.841-8.547,8.186c-1.195,1.343-2.181,2.654-2.925,3.929H85.041
			L85.041,80.361z"/>
	</g>
	<g>
		<path fill-rule="evenodd" clip-rule="evenodd" d="M189.148,377.881l-75.454-0.797c27.26-13.931,34.531-29.837,33.236-55.775
			c-0.183-3.688-0.405-6.943-0.705-7.446c-1.231-2.066-14.085,11.117-15.412,12.909c-10.033,13.552-55.068,24.462-64.387-11.255
			c-6.707-25.701,17.837-41.127,41.552-37.742c4.985,0.713,14.002,5.341,21.016,11.604c6.586,5.881,9.841,12.621,15.832,12.895
			c9.14,0.421-5.808-21.534-11.268-27.333c-23.363-24.817-17.647-66.633,19.066-66.633c35.557,0,40.043,36.252,17.258,65.198
			c-4.582,5.821-18.422,22.923-11.338,28.236c1.703,1.276,6.859-1.498,12.016-7.074c9.186-9.928,22.713-18.549,36.74-18.549
			c15.283,0,29.088,10.062,31.211,25.694c3.201,23.556-10.34,38.048-33.164,39.414c-23.223,1.388-40.027-27.368-46.207-27.368
			c-1.148,0-1.619,3.255-1.775,6.854C156.062,351.005,163.504,362.409,189.148,377.881L189.148,377.881z"/>
	</g>
	<g>
		<path fill-rule="evenodd" clip-rule="evenodd" d="M78.741,181.687l-35.734-0.358c12.909-6.271,16.353-13.429,15.74-25.104
			c-0.088-1.659-0.193-3.124-0.334-3.35c-0.583-0.932-6.671,5.002-7.298,5.808c-4.753,6.102-26.081,11.01-30.495-5.065
			c-3.176-11.565,8.448-18.51,19.68-16.986c2.36,0.322,6.63,2.405,9.953,5.223c3.118,2.646,4.661,5.679,7.497,5.802
			c4.329,0.19-2.75-9.691-5.335-12.301c-11.064-11.17-8.356-29.989,9.029-29.989c16.839,0,18.963,16.314,8.174,29.342
			c-2.17,2.623-8.726,10.316-5.371,12.71c0.806,0.574,3.249-0.674,5.692-3.185c4.349-4.469,10.755-8.349,17.399-8.349
			c7.238,0,13.774,4.529,14.78,11.565c1.517,10.602-4.896,17.124-15.706,17.737c-10.998,0.626-18.957-12.316-21.883-12.316
			c-0.543,0-0.767,1.465-0.839,3.083C63.072,169.589,66.597,174.723,78.741,181.687L78.741,181.687z"/>
	</g>
</g>
</svg>
