<?xml version="1.0" encoding="utf-8"?>
<!-- Generator: Adobe Illustrator 15.1.0, SVG Export Plug-In . SVG Version: 6.00 Build 0)  -->
<!DOCTYPE svg PUBLIC "-//W3C//DTD SVG 1.1//EN" "http://www.w3.org/Graphics/SVG/1.1/DTD/svg11.dtd">
<svg version="1.1" id="Layer_1" xmlns="http://www.w3.org/2000/svg" xmlns:xlink="http://www.w3.org/1999/xlink" x="0px" y="0px"
	 width="300px" height="412px" viewBox="0 0 300 412" enable-background="new 0 0 300 412" xml:space="preserve">
<g>
	<g>
		<path fill="#FFFFFF" d="M19.406,2.477h261.182c9.311,0,16.93,7.586,16.93,16.859v373.333c0,9.276-7.619,16.862-16.93,16.862
			H19.406c-9.31,0-16.927-7.586-16.927-16.862V19.336C2.479,10.062,10.096,2.477,19.406,2.477L19.406,2.477z"/>
		<path fill="#C6C6C6" d="M280.588,412H19.406C8.706,412,0,403.328,0,392.669V19.336C0,8.679,8.706,0.008,19.406,0.008h261.182
			c10.703,0,19.41,8.671,19.41,19.328v373.333C299.998,403.328,291.291,412,280.588,412z M19.406,4.946
			c-7.967,0-14.448,6.456-14.448,14.39v373.333c0,7.937,6.481,14.394,14.448,14.394h261.182c7.969,0,14.451-6.457,14.451-14.394
			V19.336c0-7.935-6.482-14.39-14.451-14.39H19.406z"/>
	</g>
	<g>
		<path d="M64.067,91.235V76.461H33.14V64.13l32.793-46.653h12.155v46.601h9.378v12.383h-9.378v14.774H64.067L64.067,91.235z
			 M64.067,64.078V38.973L46.705,64.078H64.067L64.067,64.078z"/>
	</g>
	<g>
		<path fill-rule="evenodd" clip-rule="evenodd" d="M146.384,323.848c0.083-3.039-0.402-3.419-2.477-2.598l-16.678,13.818
			c-33.679,26.97-84.185-12.824-47.077-56.203c26.616-25.104,51.213-48.796,69.971-73.334c18.513,22.468,39.074,45.375,65.38,70.071
			c18.756,18.078,23.408,37.368,9.801,57.387c-26.07,20.014-48.807,9.871-66.02-7.566c-2.324-2.354-5.543-7.837-5.695-1.111
			c2.895,27.326,11.604,36.531,35.586,47.889l-76.965-0.153C137.035,359.969,145.015,351.087,146.384,323.848L146.384,323.848z"/>
	</g>
	<g>
		<path fill-rule="evenodd" clip-rule="evenodd" d="M58.633,154.583c0.037-1.376-0.184-1.549-1.125-1.177l-7.555,6.261
			c-15.26,12.219-38.142-5.812-21.33-25.464c12.06-11.376,23.204-22.11,31.702-33.229c8.388,10.182,17.706,20.56,29.624,31.75
			c8.498,8.189,10.607,16.931,4.438,26.002c-11.809,9.066-22.111,4.47-29.909-3.43c-1.055-1.067-2.512-3.55-2.583-0.503
			c1.312,12.381,5.258,16.553,16.124,21.698L43.15,176.42C54.398,170.948,58.013,166.925,58.633,154.583L58.633,154.583z"/>
	</g>
</g>
</svg>
