<?xml version="1.0" encoding="utf-8"?>
<!-- Generator: Adobe Illustrator 15.1.0, SVG Export Plug-In . SVG Version: 6.00 Build 0)  -->
<!DOCTYPE svg PUBLIC "-//W3C//DTD SVG 1.1//EN" "http://www.w3.org/Graphics/SVG/1.1/DTD/svg11.dtd">
<svg version="1.1" id="Layer_1" xmlns="http://www.w3.org/2000/svg" xmlns:xlink="http://www.w3.org/1999/xlink" x="0px" y="0px"
	 width="300px" height="412px" viewBox="0 0 300 412" enable-background="new 0 0 300 412" xml:space="preserve">
<g>
	<g>
		<path fill="#FFFFFF" d="M19.409,2.477h261.183c9.309,0,16.926,7.586,16.926,16.861v373.333c0,9.274-7.617,16.86-16.926,16.86
			H19.409c-9.311,0-16.93-7.586-16.93-16.86V19.338C2.479,10.062,10.098,2.477,19.409,2.477L19.409,2.477z"/>
		<path fill="#C6C6C6" d="M280.592,412H19.409C8.707,412,0,403.329,0,392.671V19.338C0,8.679,8.707,0.008,19.409,0.008h261.183
			c10.701,0,19.406,8.671,19.406,19.33v373.333C299.998,403.329,291.293,412,280.592,412z M19.409,4.946
			c-7.968,0-14.451,6.457-14.451,14.392v373.333c0,7.936,6.483,14.392,14.451,14.392h261.183c7.967,0,14.447-6.456,14.447-14.392
			V19.338c0-7.936-6.48-14.392-14.447-14.392H19.409z"/>
	</g>
	<g>
		<path d="M86.544,40.359l-14.168,1.526c-0.337-2.845-1.244-4.942-2.701-6.312c-1.458-1.353-3.362-2.029-5.69-2.029
			c-3.075,0-5.687,1.354-7.838,4.076c-2.134,2.704-3.466,8.342-4.036,16.91c3.662-4.197,8.178-6.296,13.598-6.296
			c6.118,0,11.346,2.273,15.699,6.817c4.354,4.525,6.54,10.389,6.54,17.568c0,7.63-2.29,13.737-6.877,18.35
			c-4.569,4.595-10.471,6.902-17.655,6.902c-7.697,0-14.043-2.913-19.002-8.759c-4.96-5.844-7.45-15.417-7.45-28.737
			c0-13.648,2.577-23.483,7.751-29.517c5.173-6.036,11.892-9.053,20.16-9.053c5.795,0,10.594,1.595,14.398,4.751
			C83.078,29.729,85.496,34.325,86.544,40.359L86.544,40.359z M53.375,71.508c0,4.631,1.083,8.219,3.269,10.735
			c2.185,2.532,4.691,3.796,7.503,3.796c2.719,0,4.958-1.039,6.772-3.103c1.812-2.063,2.702-5.462,2.702-10.163
			c0-4.838-0.958-8.394-2.914-10.648c-1.94-2.255-4.374-3.382-7.292-3.382c-2.807,0-5.191,1.076-7.126,3.226
			C54.333,64.119,53.375,67.31,53.375,71.508L53.375,71.508z"/>
	</g>
	<g>
		<path fill-rule="evenodd" clip-rule="evenodd" d="M150.024,329.253c0.079-3.036-0.408-3.42-2.483-2.596l-16.675,13.816
			c-33.679,26.972-84.185-12.823-47.077-56.202c26.615-25.104,51.216-48.796,69.97-73.334
			c18.514,22.467,39.074,45.373,65.381,70.069c18.756,18.078,23.408,37.368,9.801,57.388c-26.07,20.014-48.807,9.87-66.02-7.566
			c-2.324-2.354-5.539-7.838-5.695-1.111c2.895,27.326,11.604,36.533,35.586,47.892l-76.965-0.155
			C140.675,365.377,148.652,356.492,150.024,329.253L150.024,329.253z"/>
	</g>
	<g>
		<path fill-rule="evenodd" clip-rule="evenodd" d="M61.054,160.088c0.037-1.376-0.184-1.55-1.125-1.178l-7.555,6.259
			c-15.26,12.222-38.142-5.808-21.33-25.461c12.059-11.374,23.203-22.108,31.702-33.228c8.388,10.181,17.706,20.559,29.624,31.748
			c8.498,8.19,10.606,16.932,4.438,26.001c-11.809,9.067-22.111,4.472-29.91-3.429c-1.054-1.066-2.512-3.551-2.583-0.503
			c1.312,12.38,5.258,16.552,16.124,21.698l-34.87-0.069C56.818,176.455,60.433,172.429,61.054,160.088L61.054,160.088z"/>
	</g>
</g>
</svg>
