<?xml version="1.0" encoding="utf-8"?>
<!-- Generator: Adobe Illustrator 15.1.0, SVG Export Plug-In . SVG Version: 6.00 Build 0)  -->
<!DOCTYPE svg PUBLIC "-//W3C//DTD SVG 1.1//EN" "http://www.w3.org/Graphics/SVG/1.1/DTD/svg11.dtd">
<svg version="1.1" id="Layer_1" xmlns="http://www.w3.org/2000/svg" xmlns:xlink="http://www.w3.org/1999/xlink" x="0px" y="0px"
	 width="300px" height="412px" viewBox="0 0 300 412" enable-background="new 0 0 300 412" xml:space="preserve">
<g>
	<g>
		<path fill="#FFFFFF" d="M19.407,2.473h261.185c9.312,0,16.928,7.586,16.928,16.859v373.339c0,9.274-7.615,16.86-16.928,16.86
			H19.407c-9.312,0-16.928-7.586-16.928-16.86V19.332C2.479,10.059,10.096,2.473,19.407,2.473L19.407,2.473z"/>
		<path fill="#C6C6C6" d="M280.592,412H19.407C8.706,412,0,403.329,0,392.671V19.332C0,8.675,8.706,0.004,19.407,0.004h261.185
			c10.701,0,19.406,8.671,19.406,19.328v373.339C299.998,403.329,291.293,412,280.592,412z M19.407,4.942
			c-7.968,0-14.45,6.456-14.45,14.39v373.339c0,7.936,6.482,14.392,14.45,14.392h261.185c7.969,0,14.449-6.456,14.449-14.392V19.332
			c0-7.935-6.48-14.39-14.449-14.39H19.407z"/>
	</g>
	<g>
		<path d="M32.983,34.854V21.404h53.425v10.512c-4.404,4.032-8.883,9.805-13.457,17.341c-4.554,7.519-8.026,15.53-10.417,23.999
			c-2.393,8.486-3.569,16.057-3.531,22.73H43.934c0.266-10.459,2.581-21.111,6.984-31.974c4.384-10.881,10.249-20.583,17.593-29.157
			H32.983L32.983,34.854z"/>
	</g>
	<g>
		<path fill-rule="evenodd" clip-rule="evenodd" d="M189.104,379.661l-75.451-0.795c27.258-13.931,34.53-29.842,33.234-55.777
			c-0.182-3.687-0.405-6.942-0.704-7.444c-1.232-2.066-14.085,11.116-15.412,12.906c-10.034,13.554-55.068,24.465-64.388-11.254
			c-6.707-25.699,17.838-41.126,41.552-37.741c4.986,0.712,14.004,5.341,21.018,11.603c6.585,5.882,9.839,12.623,15.831,12.896
			c9.139,0.418-5.807-21.536-11.267-27.335c-23.365-24.818-17.647-66.631,19.064-66.631c35.559,0,40.043,36.252,17.262,65.198
			c-4.584,5.82-18.426,22.922-11.34,28.236c1.703,1.277,6.857-1.499,12.018-7.075c9.184-9.93,22.711-18.549,36.738-18.549
			c15.281,0,29.086,10.062,31.209,25.693c3.203,23.557-10.338,38.049-33.164,39.412c-23.221,1.389-40.025-27.366-46.207-27.366
			c-1.146,0-1.615,3.255-1.773,6.854C156.02,352.783,163.459,364.188,189.104,379.661L189.104,379.661z"/>
	</g>
	<g>
		<path fill-rule="evenodd" clip-rule="evenodd" d="M78.741,181.049l-35.734-0.355c12.909-6.271,16.353-13.431,15.74-25.106
			c-0.088-1.659-0.193-3.124-0.334-3.349c-0.583-0.931-6.671,5.003-7.298,5.808c-4.753,6.1-26.081,11.012-30.495-5.065
			c-3.176-11.566,8.448-18.509,19.68-16.986c2.36,0.319,6.63,2.404,9.953,5.222c3.118,2.646,4.661,5.68,7.497,5.803
			c4.329,0.189-2.75-9.692-5.335-12.302c-11.064-11.172-8.356-29.989,9.029-29.989c16.839,0,18.963,16.316,8.174,29.343
			c-2.17,2.621-8.726,10.317-5.371,12.709c0.806,0.576,3.249-0.673,5.692-3.184c4.349-4.468,10.755-8.349,17.399-8.349
			c7.238,0,13.774,4.529,14.78,11.565c1.517,10.602-4.896,17.125-15.706,17.737c-10.998,0.625-18.957-12.315-21.883-12.315
			c-0.543,0-0.767,1.466-0.839,3.083C63.072,168.954,66.597,174.087,78.741,181.049L78.741,181.049z"/>
	</g>
</g>
</svg>
