<?xml version="1.0" encoding="utf-8"?>
<!-- Generator: Adobe Illustrator 15.1.0, SVG Export Plug-In . SVG Version: 6.00 Build 0)  -->
<!DOCTYPE svg PUBLIC "-//W3C//DTD SVG 1.1//EN" "http://www.w3.org/Graphics/SVG/1.1/DTD/svg11.dtd">
<svg version="1.1" id="Layer_1" xmlns="http://www.w3.org/2000/svg" xmlns:xlink="http://www.w3.org/1999/xlink" x="0px" y="0px"
	 width="300px" height="412px" viewBox="0 0 300 412" enable-background="new 0 0 300 412" xml:space="preserve">
<g>
	<g>
		<path fill="#FFFFFF" d="M19.408,2.475H280.59c9.314,0,16.93,7.586,16.93,16.859v373.337c0,9.274-7.615,16.86-16.93,16.86H19.408
			c-9.312,0-16.929-7.586-16.929-16.86V19.334C2.479,10.061,10.095,2.475,19.408,2.475L19.408,2.475z"/>
		<path fill="#C6C6C6" d="M280.59,412H19.408C8.706,412,0,403.329,0,392.671V19.334C0,8.677,8.706,0.006,19.408,0.006H280.59
			c10.703,0,19.408,8.671,19.408,19.328v373.337C299.998,403.329,291.293,412,280.59,412z M19.408,4.944
			c-7.968,0-14.45,6.456-14.45,14.39v373.337c0,7.936,6.482,14.392,14.45,14.392H280.59c7.969,0,14.451-6.456,14.451-14.392V19.334
			c0-7.935-6.482-14.39-14.451-14.39H19.408z"/>
	</g>
	<g>
		<path fill-rule="evenodd" clip-rule="evenodd" fill="#E30613" d="M155.127,372.559l-28.708-33.733
			c-19.591-23.02-65.149-63.563-58.21-99.544c6.733-34.906,66.74-39.785,79.128-13.164c1.882,4.047,2.491,7.252,4.053,8.846
			c0.814,0.879,1.855,1.317,3.07,1.317c1.682,0,2.957-0.438,3.768-1.317c1.678-1.705,1.889-5.413,4.404-8.846
			c30.504-41.678,100.676-0.483,73.527,48.008c-5.414,9.669-12.971,17.783-26.898,34.397
			c-13.934,16.622-22.115,27.252-25.604,31.261L155.127,372.559L155.127,372.559z"/>
	</g>
	<g>
		<path fill="#E30613" d="M49.281,53.021c-3.71-1.61-6.412-3.828-8.085-6.635c-1.69-2.808-2.525-5.901-2.525-9.245
			c0-5.723,1.933-10.463,5.837-14.201c3.903-3.736,9.443-5.613,16.62-5.613c7.11,0,12.632,1.877,16.553,5.613
			c3.937,3.738,5.904,8.478,5.904,14.201c0,3.559-0.904,6.725-2.718,9.516c-1.795,2.77-4.338,4.899-7.595,6.365
			c4.145,1.697,7.3,4.203,9.46,7.493c2.161,3.273,3.24,7.063,3.24,11.357c0,7.098-2.194,12.857-6.602,17.293
			c-4.409,4.436-10.262,6.653-17.579,6.653c-6.812,0-12.476-1.825-17.006-5.491c-5.35-4.345-8.015-10.282-8.015-17.83
			c0-4.149,1.012-7.957,3.013-11.444C41.789,57.581,44.961,54.897,49.281,53.021L49.281,53.021z M52.243,38.196
			c0,2.932,0.8,5.222,2.422,6.849c1.618,1.644,3.761,2.469,6.462,2.469c2.719,0,4.896-0.826,6.535-2.487
			c1.618-1.664,2.437-3.954,2.437-6.886c0-2.771-0.799-4.971-2.42-6.635c-1.621-1.665-3.748-2.486-6.412-2.486
			c-2.753,0-4.947,0.841-6.585,2.503C53.062,33.206,52.243,35.423,52.243,38.196L52.243,38.196z M50.92,71.083
			c0,4.061,1.009,7.225,3.031,9.497c2.021,2.272,4.547,3.398,7.577,3.398c2.963,0,5.42-1.091,7.354-3.272
			c1.933-2.182,2.908-5.331,2.908-9.461c0-3.594-0.992-6.49-2.959-8.674c-1.97-2.181-4.479-3.272-7.509-3.272
			c-3.504,0-6.118,1.253-7.825,3.719C51.773,65.504,50.92,68.187,50.92,71.083L50.92,71.083z"/>
	</g>
	<g>
		<path fill-rule="evenodd" clip-rule="evenodd" fill="#E30613" d="M66.049,172.81l-13.061-14.395
			c-8.912-9.825-29.64-27.126-26.485-42.483c3.064-14.896,30.367-16.977,36.002-5.617c0.857,1.727,1.134,3.095,1.846,3.775
			c0.369,0.374,0.845,0.562,1.397,0.562c0.763,0,1.344-0.188,1.713-0.562c0.765-0.728,0.859-2.311,2.004-3.775
			c13.879-17.785,45.807-0.206,33.454,20.487c-2.463,4.128-5.902,7.59-12.238,14.681c-6.338,7.093-10.061,11.628-11.648,13.339
			L66.049,172.81L66.049,172.81z"/>
	</g>
</g>
</svg>
