<?xml version="1.0" encoding="utf-8"?>
<!-- Generator: Adobe Illustrator 15.1.0, SVG Export Plug-In . SVG Version: 6.00 Build 0)  -->
<!DOCTYPE svg PUBLIC "-//W3C//DTD SVG 1.1//EN" "http://www.w3.org/Graphics/SVG/1.1/DTD/svg11.dtd">
<svg version="1.1" id="Layer_1" xmlns="http://www.w3.org/2000/svg" xmlns:xlink="http://www.w3.org/1999/xlink" x="0px" y="0px"
	 width="300px" height="412px" viewBox="0 0 300 412" enable-background="new 0 0 300 412" xml:space="preserve">
<g>
	<g>
		<path fill="#FFFFFF" d="M19.408,2.475H280.59c9.314,0,16.93,7.586,16.93,16.86v373.337c0,9.272-7.615,16.859-16.93,16.859H19.408
			c-9.312,0-16.929-7.587-16.929-16.859V19.335C2.479,10.061,10.095,2.475,19.408,2.475L19.408,2.475z"/>
		<path fill="#C6C6C6" d="M280.59,412H19.408C8.706,412,0,403.33,0,392.672V19.335C0,8.677,8.706,0.006,19.408,0.006H280.59
			c10.703,0,19.408,8.671,19.408,19.329v373.337C299.998,403.33,291.293,412,280.59,412z M19.408,4.944
			c-7.968,0-14.45,6.456-14.45,14.391v373.337c0,7.935,6.482,14.391,14.45,14.391H280.59c7.969,0,14.451-6.456,14.451-14.391V19.335
			c0-7.935-6.482-14.391-14.451-14.391H19.408z"/>
	</g>
	<g>
		<path fill-rule="evenodd" clip-rule="evenodd" fill="#E30613" d="M154.822,370.193l-28.708-33.734
			c-19.589-23.019-65.147-63.562-58.208-99.544c6.73-34.909,66.738-39.784,79.129-13.166c1.882,4.05,2.491,7.253,4.053,8.847
			c0.811,0.877,1.854,1.317,3.07,1.317c1.678,0,2.953-0.44,3.766-1.317c1.68-1.704,1.889-5.413,4.4-8.847
			c30.508-41.679,100.682-0.483,73.533,48.009c-5.414,9.67-12.973,17.785-26.898,34.397c-13.934,16.622-22.115,27.251-25.605,31.26
			L154.822,370.193L154.822,370.193z"/>
	</g>
	<g>
		<polygon fill="#E30613" points="38.35,92.724 38.35,17.009 53.958,17.009 53.958,50.628 85.504,17.009 106.496,17.009 
			77.383,46.502 108.081,92.724 87.88,92.724 66.636,57.186 53.958,69.844 53.958,92.724 38.35,92.724 		"/>
	</g>
	<g>
		<path fill-rule="evenodd" clip-rule="evenodd" fill="#E30613" d="M73.625,173.411l-12.871-14.614
			c-8.783-9.972-29.207-27.536-26.098-43.121c3.019-15.123,29.918-17.237,35.476-5.704c0.844,1.753,1.116,3.142,1.816,3.831
			c0.363,0.382,0.831,0.571,1.378,0.571c0.751,0,1.324-0.189,1.687-0.571c0.754-0.737,0.847-2.343,1.974-3.831
			c13.678-18.056,45.136-0.209,32.965,20.796c-2.429,4.19-5.816,7.703-12.059,14.901c-6.249,7.2-9.916,11.805-11.478,13.542
			L73.625,173.411L73.625,173.411z"/>
	</g>
</g>
</svg>
