<?xml version="1.0" encoding="utf-8"?>
<!-- Generator: Adobe Illustrator 15.1.0, SVG Export Plug-In . SVG Version: 6.00 Build 0)  -->
<!DOCTYPE svg PUBLIC "-//W3C//DTD SVG 1.1//EN" "http://www.w3.org/Graphics/SVG/1.1/DTD/svg11.dtd">
<svg version="1.1" id="Layer_1" xmlns="http://www.w3.org/2000/svg" xmlns:xlink="http://www.w3.org/1999/xlink" x="0px" y="0px"
	 width="300px" height="412px" viewBox="0 0 300 412" enable-background="new 0 0 300 412" xml:space="preserve">
<g>
	<path fill="#FFFFFF" d="M19.408,2.475H280.59c9.312,0,16.93,7.587,16.93,16.861v373.336c0,9.273-7.615,16.859-16.93,16.859H19.408
		c-9.312,0-16.929-7.586-16.929-16.859V19.336C2.479,10.062,10.095,2.475,19.408,2.475L19.408,2.475z"/>
	<path fill="#C6C6C6" d="M280.59,412H19.408C8.706,412,0,403.33,0,392.672V19.336C0,8.677,8.706,0.006,19.408,0.006H280.59
		c10.702,0,19.408,8.671,19.408,19.33v373.336C299.999,403.33,291.292,412,280.59,412z M19.408,4.944
		c-7.968,0-14.45,6.457-14.45,14.392v373.336c0,7.936,6.482,14.391,14.45,14.391H280.59c7.969,0,14.451-6.455,14.451-14.391V19.336
		c0-7.936-6.482-14.392-14.451-14.392H19.408z"/>
</g>
<g>
	<path fill="#E30613" d="M153.302,368.438l-28.709-33.733c-19.588-23.021-65.148-63.563-58.21-99.545
		c6.733-34.905,66.741-39.784,79.129-13.161c1.885,4.045,2.492,7.25,4.057,8.845c0.811,0.878,1.854,1.315,3.07,1.315
		c1.678,0,2.953-0.438,3.766-1.315c1.681-1.704,1.89-5.413,4.402-8.845c30.504-41.68,100.68-0.486,73.528,48.005
		c-5.412,9.673-12.974,17.785-26.899,34.399c-13.931,16.621-22.115,27.252-25.604,31.26L153.302,368.438L153.302,368.438z"/>
</g>
<g>
	<path fill="#E30613" d="M72.451,172.873l-12.953-14.708c-8.839-10.037-29.395-27.715-26.261-43.401
		c3.036-15.218,30.111-17.344,35.701-5.74c0.848,1.765,1.123,3.162,1.828,3.856c0.366,0.384,0.836,0.577,1.386,0.577
		c0.757,0,1.333-0.193,1.699-0.577c0.756-0.743,0.853-2.36,1.987-3.856c13.763-18.168,45.425-0.208,33.176,20.933
		c-2.444,4.215-5.854,7.753-12.136,14.995c-6.288,7.249-9.979,11.884-11.552,13.629L72.451,172.873L72.451,172.873z"/>
</g>
<g>
	<path fill="#E30613" d="M49.796,89.958H35.411V43.963h-17.83V33.124C27.61,33.327,36.83,29.883,38.35,19.042h11.447L49.796,89.958
		L49.796,89.958z"/>
	<path fill="#E30613" d="M86.369,17.624c14.184,0,26.137,8.915,26.137,36.572c0,28.266-11.954,37.18-26.137,37.18
		c-13.98,0-25.935-8.915-25.935-37.18C60.435,26.539,72.389,17.624,86.369,17.624z M86.369,79.523
		c11.752,0,11.752-17.323,11.752-25.327c0-7.396,0-24.719-11.752-24.719C74.82,29.477,74.82,46.8,74.82,54.196
		C74.82,62.2,74.82,79.523,86.369,79.523z"/>
</g>
</svg>
