<?xml version="1.0" encoding="UTF-8" standalone="no"?>
<!-- Created with Inkscape (http://www.inkscape.org/) -->

<svg
   xmlns:dc="http://purl.org/dc/elements/1.1/"
   xmlns:cc="http://creativecommons.org/ns#"
   xmlns:rdf="http://www.w3.org/1999/02/22-rdf-syntax-ns#"
   xmlns:svg="http://www.w3.org/2000/svg"
   xmlns="http://www.w3.org/2000/svg"
   xmlns:sodipodi="http://sodipodi.sourceforge.net/DTD/sodipodi-0.dtd"
   xmlns:inkscape="http://www.inkscape.org/namespaces/inkscape"
   width="40"
   height="40"
   id="svg17719"
   version="1.1"
   inkscape:version="0.48.3.1 r9886"
   sodipodi:docname="menu-button.svg">
  <defs
     id="defs17721">
    <linearGradient
       id="linearGradient18575">
      <stop
         style="stop-color:#d0d0d0;stop-opacity:1;"
         offset="0"
         id="stop18577" />
      <stop
         style="stop-color:#ffffff;stop-opacity:1;"
         offset="1"
         id="stop18579" />
    </linearGradient>
  </defs>
  <sodipodi:namedview
     id="base"
     pagecolor="#ffffff"
     bordercolor="#666666"
     borderopacity="1.0"
     inkscape:pageopacity="0.0"
     inkscape:pageshadow="2"
     inkscape:zoom="1.42"
     inkscape:cx="101.30086"
     inkscape:cy="-54.881424"
     inkscape:document-units="px"
     inkscape:current-layer="layer2"
     showgrid="false"
     inkscape:window-width="869"
     inkscape:window-height="955"
     inkscape:window-x="202"
     inkscape:window-y="210"
     inkscape:window-maximized="0" />
  <metadata
     id="metadata17724">
    <rdf:RDF>
      <cc:Work
         rdf:about="">
        <dc:format>image/svg+xml</dc:format>
        <dc:type
           rdf:resource="http://purl.org/dc/dcmitype/StillImage" />
        <dc:title></dc:title>
      </cc:Work>
    </rdf:RDF>
  </metadata>
  <g
     inkscape:groupmode="layer"
     id="layer2"
     inkscape:label="bg" />
  <g
     inkscape:label="Layer 1"
     inkscape:groupmode="layer"
     id="layer1">
    <g
       id="g17768"
       transform="matrix(1.4545455,0,0,1.4545455,-1039.7403,-351.22813)"
       style="fill:#e6e6e6;fill-opacity:1;fill-rule:nonzero">
      <g
         transform="matrix(1.25,0,0,-1.25,722.32143,247.71933)"
         id="g17220"
         style="fill:#e6e6e6;fill-opacity:1;fill-rule:nonzero">
        <path
           inkscape:connector-curvature="0"
           id="path17222"
           style="fill:#e6e6e6;fill-opacity:1;fill-rule:nonzero;stroke:none"
           d="m 0,0 c 0,-0.553 -0.447,-1 -1,-1 l -4,0 c -0.553,0 -1,0.447 -1,1 l 0,4 c 0,0.553 0.447,1 1,1 l 4,0 C -0.447,5 0,4.553 0,4 L 0,0 z" />
      </g>
      <g
         transform="matrix(1.25,0,0,-1.25,732.32143,247.71933)"
         id="g17224"
         style="fill:#e6e6e6;fill-opacity:1;fill-rule:nonzero">
        <path
           inkscape:connector-curvature="0"
           id="path17226"
           style="fill:#e6e6e6;fill-opacity:1;fill-rule:nonzero;stroke:none"
           d="m 0,0 c 0,-0.553 -0.447,-1 -1,-1 l -4,0 c -0.553,0 -1,0.447 -1,1 l 0,4 c 0,0.553 0.447,1 1,1 l 4,0 C -0.447,5 0,4.553 0,4 L 0,0 z" />
      </g>
      <g
         transform="matrix(1.25,0,0,-1.25,742.32143,247.71933)"
         id="g17228"
         style="fill:#e6e6e6;fill-opacity:1;fill-rule:nonzero">
        <path
           inkscape:connector-curvature="0"
           id="path17230"
           style="fill:#e6e6e6;fill-opacity:1;fill-rule:nonzero;stroke:none"
           d="m 0,0 c 0,-0.553 -0.447,-1 -1,-1 l -4,0 c -0.553,0 -1,0.447 -1,1 l 0,4 c 0,0.553 0.447,1 1,1 l 4,0 C -0.447,5 0,4.553 0,4 L 0,0 z" />
      </g>
      <g
         transform="matrix(1.25,0,0,-1.25,722.32143,257.71933)"
         id="g17232"
         style="fill:#e6e6e6;fill-opacity:1;fill-rule:nonzero">
        <path
           inkscape:connector-curvature="0"
           id="path17234"
           style="fill:#e6e6e6;fill-opacity:1;fill-rule:nonzero;stroke:none"
           d="m 0,0 c 0,-0.553 -0.447,-1 -1,-1 l -4,0 c -0.553,0 -1,0.447 -1,1 l 0,4 c 0,0.553 0.447,1 1,1 l 4,0 C -0.447,5 0,4.553 0,4 L 0,0 z" />
      </g>
      <g
         transform="matrix(1.25,0,0,-1.25,732.32143,257.71933)"
         id="g17236"
         style="fill:#e6e6e6;fill-opacity:1;fill-rule:nonzero">
        <path
           inkscape:connector-curvature="0"
           id="path17238"
           style="fill:#e6e6e6;fill-opacity:1;fill-rule:nonzero;stroke:none"
           d="m 0,0 c 0,-0.553 -0.447,-1 -1,-1 l -4,0 c -0.553,0 -1,0.447 -1,1 l 0,4 c 0,0.553 0.447,1 1,1 l 4,0 C -0.447,5 0,4.553 0,4 L 0,0 z" />
      </g>
      <g
         transform="matrix(1.25,0,0,-1.25,742.32143,257.71933)"
         id="g17240"
         style="fill:#e6e6e6;fill-opacity:1;fill-rule:nonzero">
        <path
           inkscape:connector-curvature="0"
           id="path17242"
           style="fill:#e6e6e6;fill-opacity:1;fill-rule:nonzero;stroke:none"
           d="m 0,0 c 0,-0.553 -0.447,-1 -1,-1 l -4,0 c -0.553,0 -1,0.447 -1,1 l 0,4 c 0,0.553 0.447,1 1,1 l 4,0 C -0.447,5 0,4.553 0,4 L 0,0 z" />
      </g>
      <g
         transform="matrix(1.25,0,0,-1.25,722.32143,267.71933)"
         id="g17244"
         style="fill:#e6e6e6;fill-opacity:1;fill-rule:nonzero">
        <path
           inkscape:connector-curvature="0"
           id="path17246"
           style="fill:#e6e6e6;fill-opacity:1;fill-rule:nonzero;stroke:none"
           d="m 0,0 c 0,-0.553 -0.447,-1 -1,-1 l -4,0 c -0.553,0 -1,0.447 -1,1 l 0,4 c 0,0.553 0.447,1 1,1 l 4,0 C -0.447,5 0,4.553 0,4 L 0,0 z" />
      </g>
      <g
         transform="matrix(1.25,0,0,-1.25,732.32143,267.71933)"
         id="g17248"
         style="fill:#e6e6e6;fill-opacity:1;fill-rule:nonzero">
        <path
           inkscape:connector-curvature="0"
           id="path17250"
           style="fill:#e6e6e6;fill-opacity:1;fill-rule:nonzero;stroke:none"
           d="m 0,0 c 0,-0.553 -0.447,-1 -1,-1 l -4,0 c -0.553,0 -1,0.447 -1,1 l 0,4 c 0,0.553 0.447,1 1,1 l 4,0 C -0.447,5 0,4.553 0,4 L 0,0 z" />
      </g>
      <g
         transform="matrix(1.25,0,0,-1.25,742.32143,267.71933)"
         id="g17252"
         style="fill:#e6e6e6;fill-opacity:1;fill-rule:nonzero">
        <path
           inkscape:connector-curvature="0"
           id="path17254"
           style="fill:#e6e6e6;fill-opacity:1;fill-rule:nonzero;stroke:none"
           d="m 0,0 c 0,-0.553 -0.447,-1 -1,-1 l -4,0 c -0.553,0 -1,0.447 -1,1 l 0,4 c 0,0.553 0.447,1 1,1 l 4,0 C -0.447,5 0,4.553 0,4 L 0,0 z" />
      </g>
    </g>
  </g>
</svg>
