<?xml version="1.0" encoding="utf-8"?>
<!-- Generator: Adobe Illustrator 15.1.0, SVG Export Plug-In . SVG Version: 6.00 Build 0)  -->
<!DOCTYPE svg PUBLIC "-//W3C//DTD SVG 1.1//EN" "http://www.w3.org/Graphics/SVG/1.1/DTD/svg11.dtd">
<svg version="1.1" id="Layer_1" xmlns="http://www.w3.org/2000/svg" xmlns:xlink="http://www.w3.org/1999/xlink" x="0px" y="0px"
	 width="300px" height="412px" viewBox="0 0 300 412" enable-background="new 0 0 300 412" xml:space="preserve">
<g>
	<g>
		<path fill="#FFFFFF" d="M19.406,2.477h261.182c9.311,0,16.93,7.586,16.93,16.859v373.333c0,9.276-7.619,16.862-16.93,16.862
			H19.406c-9.31,0-16.927-7.586-16.927-16.862V19.336C2.479,10.062,10.096,2.477,19.406,2.477L19.406,2.477z"/>
		<path fill="#C6C6C6" d="M280.588,412H19.406C8.706,412,0,403.328,0,392.669V19.336C0,8.679,8.706,0.008,19.406,0.008h261.182
			c10.703,0,19.41,8.671,19.41,19.328v373.333C299.998,403.328,291.291,412,280.588,412z M19.406,4.946
			c-7.967,0-14.448,6.456-14.448,14.39v373.333c0,7.937,6.481,14.394,14.448,14.394h261.182c7.969,0,14.451-6.457,14.451-14.394
			V19.336c0-7.935-6.482-14.39-14.451-14.39H19.406z"/>
	</g>
	<g>
		<path d="M35.856,74.241l13.936-1.65c0.454,3.49,1.645,6.152,3.606,7.993c1.941,1.854,4.303,2.784,7.07,2.784
			c2.977,0,5.48-1.118,7.51-3.334c2.033-2.218,3.047-5.19,3.047-8.956c0-3.558-0.963-6.375-2.925-8.456
			c-1.942-2.096-4.32-3.128-7.125-3.128c-1.837,0-4.042,0.345-6.617,1.05l1.594-11.515c3.903,0.085,6.879-0.741,8.926-2.494
			c2.049-1.771,3.082-4.108,3.082-7.031c0-2.49-0.751-4.469-2.256-5.944c-1.506-1.48-3.519-2.218-6.004-2.218
			c-2.469,0-4.569,0.841-6.302,2.524c-1.751,1.668-2.82,4.126-3.187,7.341l-13.289-2.201c0.93-4.469,2.312-8.045,4.184-10.708
			c1.856-2.665,4.465-4.762,7.79-6.29c3.345-1.529,7.075-2.304,11.203-2.304c7.093,0,12.762,2.217,17.034,6.651
			c3.518,3.627,5.287,7.717,5.287,12.29c0,6.481-3.606,11.652-10.818,15.504c4.306,0.91,7.737,2.939,10.327,6.101
			c2.575,3.146,3.871,6.961,3.871,11.43c0,6.481-2.419,11.998-7.232,16.57c-4.813,4.554-10.817,6.841-17.995,6.841
			c-6.81,0-12.446-1.927-16.927-5.76C39.164,85.482,36.573,80.463,35.856,74.241L35.856,74.241z"/>
	</g>
	<g>
		<path fill-rule="evenodd" clip-rule="evenodd" d="M147.501,327.174c0.079-3.038-0.409-3.42-2.484-2.598l-16.674,13.817
			c-33.68,26.971-84.185-12.824-47.078-56.202c26.616-25.105,51.216-48.797,69.97-73.333c18.516,22.467,39.076,45.374,65.383,70.069
			c18.756,18.076,23.406,37.368,9.801,57.389c-26.072,20.011-48.807,9.867-66.021-7.569c-2.324-2.353-5.537-7.836-5.693-1.11
			c2.895,27.327,11.602,36.533,35.584,47.89l-76.965-0.154C138.151,363.296,146.129,354.414,147.501,327.174L147.501,327.174z"/>
	</g>
	<g>
		<path fill-rule="evenodd" clip-rule="evenodd" d="M58.633,158.735c0.037-1.375-0.184-1.548-1.125-1.175l-7.555,6.259
			c-15.26,12.218-38.142-5.811-21.33-25.464c12.06-11.376,23.204-22.11,31.702-33.229c8.388,10.181,17.706,20.56,29.624,31.749
			c8.498,8.191,10.607,16.931,4.438,26.001c-11.809,9.067-22.111,4.471-29.909-3.429c-1.055-1.064-2.512-3.549-2.583-0.502
			c1.312,12.38,5.258,16.552,16.124,21.698l-34.871-0.071C54.398,175.101,58.013,171.078,58.633,158.735L58.633,158.735z"/>
	</g>
</g>
</svg>
