<?xml version="1.0" encoding="utf-8"?>
<!-- Generator: Adobe Illustrator 15.1.0, SVG Export Plug-In . SVG Version: 6.00 Build 0)  -->
<!DOCTYPE svg PUBLIC "-//W3C//DTD SVG 1.1//EN" "http://www.w3.org/Graphics/SVG/1.1/DTD/svg11.dtd">
<svg version="1.1" id="Layer_1" xmlns="http://www.w3.org/2000/svg" xmlns:xlink="http://www.w3.org/1999/xlink" x="0px" y="0px"
	 width="300px" height="412px" viewBox="0 0 300 412" enable-background="new 0 0 300 412" xml:space="preserve">
<g>
	<g>
		<g>
			<path fill="#FFFFFF" d="M19.409,2.525h261.185c9.312,0,16.928,7.587,16.928,16.86v373.338c0,9.276-7.615,16.862-16.928,16.862
				H19.409c-9.312,0-16.928-7.586-16.928-16.862V19.386C2.481,10.112,10.098,2.525,19.409,2.525L19.409,2.525z"/>
			<path fill="#C6C6C6" d="M280.594,412.055H19.409c-10.701,0-19.407-8.672-19.407-19.331V19.386
				c0-10.657,8.706-19.329,19.407-19.329h261.185C291.295,0.057,300,8.729,300,19.386v373.338
				C300,403.383,291.295,412.055,280.594,412.055z M19.409,4.995c-7.968,0-14.45,6.456-14.45,14.391v373.338
				c0,7.937,6.482,14.394,14.45,14.394h261.185c7.969,0,14.449-6.457,14.449-14.394V19.386c0-7.935-6.48-14.391-14.449-14.391
				H19.409z"/>
		</g>
		<g>
			<path fill-rule="evenodd" clip-rule="evenodd" d="M189.105,375.157l-75.451-0.797c27.258-13.932,34.53-29.841,33.234-55.778
				c-0.182-3.687-0.405-6.942-0.704-7.443c-1.232-2.067-14.085,11.115-15.412,12.908c-10.034,13.552-55.068,24.463-64.388-11.255
				c-6.707-25.699,17.838-41.127,41.552-37.741c4.986,0.711,14.004,5.341,21.018,11.601c6.585,5.884,9.839,12.623,15.831,12.898
				c9.139,0.418-5.807-21.537-11.267-27.335c-23.365-24.819-17.647-66.631,19.064-66.631c35.559,0,40.043,36.25,17.262,65.197
				c-4.584,5.82-18.426,22.923-11.34,28.236c1.703,1.277,6.857-1.498,12.018-7.076c9.184-9.929,22.711-18.547,36.738-18.547
				c15.281,0,29.086,10.062,31.209,25.69c3.203,23.559-10.338,38.051-33.164,39.415c-23.221,1.387-40.025-27.366-46.207-27.366
				c-1.146,0-1.615,3.255-1.773,6.852C156.021,348.278,163.461,359.684,189.105,375.157L189.105,375.157z"/>
		</g>
		<g>
			<path fill-rule="evenodd" clip-rule="evenodd" d="M78.743,177.344l-35.734-0.358c12.909-6.27,16.353-13.43,15.74-25.103
				c-0.088-1.661-0.193-3.125-0.334-3.351c-0.583-0.931-6.671,5.002-7.298,5.809c-4.753,6.101-26.081,11.01-30.495-5.067
				c-3.176-11.564,8.448-18.509,19.68-16.984c2.36,0.322,6.63,2.404,9.953,5.222c3.118,2.646,4.661,5.681,7.497,5.804
				c4.329,0.188-2.75-9.693-5.335-12.304c-11.064-11.168-8.356-29.989,9.029-29.989c16.839,0,18.963,16.315,8.174,29.344
				c-2.17,2.62-8.726,10.316-5.371,12.709c0.806,0.573,3.249-0.675,5.692-3.185c4.349-4.469,10.755-8.349,17.399-8.349
				c7.238,0,13.774,4.529,14.78,11.564c1.517,10.603-4.896,17.125-15.706,17.74c-10.998,0.624-18.957-12.318-21.883-12.318
				c-0.543,0-0.767,1.465-0.839,3.084C63.074,165.247,66.599,170.38,78.743,177.344L78.743,177.344z"/>
		</g>
	</g>
	<g>
		<path d="M63.576,91.285V76.51H32.647V64.181L65.44,17.527h12.155v46.601h9.377V76.51h-9.377v14.775H63.576L63.576,91.285z
			 M63.576,64.128V39.022L46.211,64.128H63.576L63.576,64.128z"/>
	</g>
</g>
</svg>
