<?xml version="1.0" encoding="utf-8"?>
<!-- Generator: Adobe Illustrator 15.1.0, SVG Export Plug-In . SVG Version: 6.00 Build 0)  -->
<!DOCTYPE svg PUBLIC "-//W3C//DTD SVG 1.1//EN" "http://www.w3.org/Graphics/SVG/1.1/DTD/svg11.dtd">
<svg version="1.1" id="Layer_1" xmlns="http://www.w3.org/2000/svg" xmlns:xlink="http://www.w3.org/1999/xlink" x="0px" y="0px"
	 width="300px" height="412px" viewBox="0 0 300 412" enable-background="new 0 0 300 412" xml:space="preserve">
<g>
	<g>
		<path fill="#FFFFFF" d="M19.409,2.473h261.185c9.311,0,16.928,7.586,16.928,16.859v373.337c0,9.275-7.617,16.862-16.928,16.862
			H19.409c-9.311,0-16.93-7.587-16.93-16.862V19.332C2.479,10.059,10.098,2.473,19.409,2.473L19.409,2.473z"/>
		<path fill="#C6C6C6" d="M280.594,412H19.409C8.707,412,0,403.328,0,392.669V19.332C0,8.675,8.707,0.004,19.409,0.004h261.185
			C291.295,0.004,300,8.675,300,19.332v373.337C300,403.328,291.295,412,280.594,412z M19.409,4.942
			c-7.968,0-14.451,6.456-14.451,14.39v373.337c0,7.937,6.483,14.394,14.451,14.394h261.185c7.967,0,14.449-6.457,14.449-14.394
			V19.332c0-7.935-6.482-14.39-14.449-14.39H19.409z"/>
	</g>
	<g>
		<path fill="#E30613" d="M62.432,91.231V76.457H31.504v-12.33l32.793-46.654h12.156v46.601h9.377v12.383h-9.377v14.774H62.432
			L62.432,91.231z M62.432,64.074V38.969L45.069,64.074H62.432L62.432,64.074z"/>
	</g>
	<g>
		<path fill-rule="evenodd" clip-rule="evenodd" fill="#E30613" d="M150.011,205.529c23.061,29.566,51.256,56.674,82.334,82.399
			c-30.229,26.657-60.197,53.395-82.334,82.637c-30.709-36.594-59.262-60.451-84.036-82.637
			C90.31,266.579,119.231,239.925,150.011,205.529L150.011,205.529z"/>
	</g>
	<g>
		<path fill-rule="evenodd" clip-rule="evenodd" fill="#E30613" d="M59.974,100.974c10.495,13.456,23.328,25.792,37.471,37.501
			c-13.754,12.132-27.396,24.302-37.471,37.609c-13.975-16.655-26.97-27.512-38.247-37.609
			C32.803,128.759,45.965,116.63,59.974,100.974L59.974,100.974z"/>
	</g>
</g>
</svg>
