<?xml version="1.0" encoding="utf-8"?>
<!-- Generator: Adobe Illustrator 15.1.0, SVG Export Plug-In . SVG Version: 6.00 Build 0)  -->
<!DOCTYPE svg PUBLIC "-//W3C//DTD SVG 1.1//EN" "http://www.w3.org/Graphics/SVG/1.1/DTD/svg11.dtd">
<svg version="1.1" id="Layer_1" xmlns="http://www.w3.org/2000/svg" xmlns:xlink="http://www.w3.org/1999/xlink" x="0px" y="0px"
	 width="300px" height="412px" viewBox="0 0 300 412" enable-background="new 0 0 300 412" xml:space="preserve">
<g>
	<g>
		<path fill="#FFFFFF" d="M19.409,2.473h261.183c9.312,0,16.928,7.586,16.928,16.859v373.337c0,9.275-7.615,16.862-16.928,16.862
			H19.409c-9.313,0-16.93-7.587-16.93-16.862V19.332C2.479,10.059,10.095,2.473,19.409,2.473L19.409,2.473z"/>
		<path fill="#C6C6C6" d="M280.592,412H19.409C8.707,412,0,403.328,0,392.669V19.332C0,8.675,8.707,0.004,19.409,0.004h261.183
			c10.701,0,19.406,8.671,19.406,19.328v373.337C299.998,403.328,291.293,412,280.592,412z M19.409,4.942
			c-7.968,0-14.451,6.456-14.451,14.39v373.337c0,7.937,6.483,14.394,14.451,14.394h261.183c7.969,0,14.449-6.457,14.449-14.394
			V19.332c0-7.935-6.48-14.39-14.449-14.39H19.409z"/>
	</g>
	<g>
		<path fill="#E30613" d="M62.807,91.231V76.457H31.878v-12.33l32.793-46.654h12.156v46.601h9.378v12.383h-9.378v14.774H62.807
			L62.807,91.231z M62.807,64.074V38.969L45.443,64.074H62.807L62.807,64.074z"/>
	</g>
	<g>
		<path fill-rule="evenodd" clip-rule="evenodd" fill="#E30613" d="M151.188,369.148l-28.708-33.732
			c-19.588-23.021-65.147-63.565-58.208-99.547c6.73-34.905,66.738-39.784,79.129-13.162c1.882,4.046,2.492,7.251,4.054,8.846
			c0.811,0.878,1.854,1.317,3.07,1.317c1.681,0,2.955-0.439,3.765-1.317c1.682-1.705,1.891-5.412,4.402-8.846
			c30.508-41.679,100.682-0.483,73.531,48.008c-5.414,9.67-12.973,17.784-26.898,34.398c-13.934,16.621-22.117,27.251-25.605,31.258
			L151.188,369.148L151.188,369.148z"/>
	</g>
	<g>
		<path fill-rule="evenodd" clip-rule="evenodd" fill="#E30613" d="M63.524,172.707l-13.026-14.791
			c-8.887-10.094-29.561-27.869-26.412-43.645c3.056-15.305,30.284-17.445,35.906-5.773c0.853,1.776,1.128,3.181,1.84,3.879
			c0.366,0.385,0.838,0.578,1.391,0.578c0.763,0,1.341-0.193,1.71-0.578c0.762-0.748,0.856-2.375,1.996-3.879
			c13.845-18.273,45.686-0.212,33.365,21.05c-2.455,4.24-5.885,7.797-12.206,15.082c-6.322,7.289-10.033,11.95-11.618,13.706
			L63.524,172.707L63.524,172.707z"/>
	</g>
</g>
</svg>
