<?xml version="1.0" encoding="utf-8"?>
<!-- Generator: Adobe Illustrator 15.1.0, SVG Export Plug-In . SVG Version: 6.00 Build 0)  -->
<!DOCTYPE svg PUBLIC "-//W3C//DTD SVG 1.1//EN" "http://www.w3.org/Graphics/SVG/1.1/DTD/svg11.dtd">
<svg version="1.1" id="Layer_1" xmlns="http://www.w3.org/2000/svg" xmlns:xlink="http://www.w3.org/1999/xlink" x="0px" y="0px"
	 width="300px" height="412px" viewBox="0 0 300 412" enable-background="new 0 0 300 412" xml:space="preserve">
<g>
	<g>
		<path fill="#FFFFFF" d="M19.409,2.473h261.183c9.312,0,16.928,7.587,16.928,16.861v373.337c0,9.274-7.615,16.86-16.928,16.86
			H19.409c-9.313,0-16.93-7.586-16.93-16.86V19.334C2.479,10.06,10.095,2.473,19.409,2.473L19.409,2.473z"/>
		<path fill="#C6C6C6" d="M280.592,412H19.409C8.707,412,0,403.329,0,392.671V19.334C0,8.676,8.707,0.004,19.409,0.004h261.183
			c10.701,0,19.406,8.672,19.406,19.33v373.337C299.998,403.329,291.293,412,280.592,412z M19.409,4.942
			c-7.968,0-14.451,6.457-14.451,14.392v373.337c0,7.936,6.483,14.392,14.451,14.392h261.183c7.969,0,14.449-6.456,14.449-14.392
			V19.334c0-7.936-6.48-14.392-14.449-14.392H19.409z"/>
	</g>
	<g>
		<path fill="#E30613" d="M35.539,76.454l13.859-1.455c0.388,3.203,1.571,5.747,3.516,7.616c1.941,1.887,4.188,2.823,6.724,2.823
			c2.909,0,5.375-1.213,7.387-3.619c2.01-2.422,3.025-6.076,3.025-10.941c0-4.551-0.998-7.979-3.007-10.264
			c-1.996-2.285-4.599-3.427-7.793-3.427c-3.988,0-7.569,1.817-10.747,5.434l-11.292-1.68l7.133-38.687h36.793v13.327H54.889
			l-2.18,12.638c3.109-1.594,6.271-2.389,9.517-2.389c6.168,0,11.407,2.301,15.682,6.889c4.292,4.604,6.438,10.577,6.438,17.917
			c0,6.109-1.724,11.579-5.187,16.375c-4.732,6.56-11.272,9.832-19.655,9.832c-6.71,0-12.167-1.834-16.393-5.522
			C38.887,87.635,36.349,82.684,35.539,76.454L35.539,76.454z"/>
	</g>
	<g>
		<path fill-rule="evenodd" clip-rule="evenodd" fill="#E30613" d="M151.188,371.837l-28.708-33.732
			c-19.588-23.021-65.147-63.564-58.208-99.545c6.73-34.906,66.738-39.785,79.129-13.162c1.882,4.045,2.492,7.251,4.054,8.845
			c0.811,0.878,1.854,1.318,3.07,1.318c1.681,0,2.955-0.44,3.765-1.318c1.682-1.705,1.891-5.412,4.402-8.845
			c30.508-41.68,100.682-0.485,73.531,48.007c-5.414,9.67-12.973,17.784-26.898,34.398c-13.934,16.621-22.117,27.251-25.605,31.259
			L151.188,371.837L151.188,371.837z"/>
	</g>
	<g>
		<path fill-rule="evenodd" clip-rule="evenodd" fill="#E30613" d="M63.061,179.146l-13.637-15.485
			c-9.307-10.565-30.951-29.176-27.655-45.692c3.198-16.024,31.705-18.262,37.59-6.044c0.896,1.859,1.185,3.33,1.928,4.06
			c0.386,0.405,0.878,0.607,1.457,0.607c0.8,0,1.404-0.202,1.79-0.607c0.799-0.78,0.898-2.483,2.091-4.06
			c14.492-19.132,47.83-0.222,34.931,22.036c-2.572,4.441-6.163,8.165-12.779,15.792c-6.617,7.628-10.506,12.509-12.162,14.348
			L63.061,179.146L63.061,179.146z"/>
	</g>
</g>
</svg>
