<?xml version="1.0" encoding="utf-8"?>
<!-- Generator: Adobe Illustrator 15.1.0, SVG Export Plug-In . SVG Version: 6.00 Build 0)  -->
<!DOCTYPE svg PUBLIC "-//W3C//DTD SVG 1.1//EN" "http://www.w3.org/Graphics/SVG/1.1/DTD/svg11.dtd">
<svg version="1.1" id="Layer_1" xmlns="http://www.w3.org/2000/svg" xmlns:xlink="http://www.w3.org/1999/xlink" x="0px" y="0px"
	 width="300px" height="412px" viewBox="0 0 300 412" enable-background="new 0 0 300 412" xml:space="preserve">
<g>
	<g>
		<path fill="#FFFFFF" d="M19.408,2.473h261.186c9.311,0,16.926,7.586,16.926,16.861v373.337c0,9.274-7.615,16.86-16.926,16.86
			H19.408c-9.312,0-16.929-7.586-16.929-16.86V19.334C2.479,10.059,10.095,2.473,19.408,2.473L19.408,2.473z"/>
		<path fill="#C6C6C6" d="M280.594,412H19.408C8.706,412,0,403.329,0,392.671V19.334C0,8.676,8.706,0.004,19.408,0.004h261.186
			c10.701,0,19.404,8.672,19.404,19.33v373.337C299.998,403.329,291.295,412,280.594,412z M19.408,4.942
			c-7.968,0-14.45,6.457-14.45,14.392v373.337c0,7.936,6.482,14.392,14.45,14.392h261.186c7.967,0,14.447-6.456,14.447-14.392
			V19.334c0-7.936-6.48-14.392-14.447-14.392H19.408z"/>
	</g>
	<g>
		<path fill="#E30613" d="M83.69,40.356l-14.168,1.526c-0.337-2.845-1.244-4.943-2.701-6.313c-1.458-1.352-3.359-2.029-5.69-2.029
			c-3.075,0-5.688,1.354-7.841,4.075c-2.131,2.705-3.463,8.342-4.034,16.91c3.663-4.198,8.179-6.296,13.599-6.296
			c6.118,0,11.343,2.272,15.7,6.816c4.354,4.526,6.543,10.389,6.543,17.57c0,7.63-2.294,13.735-6.881,18.349
			c-4.569,4.594-10.472,6.901-17.655,6.901c-7.697,0-14.044-2.913-19.005-8.758c-4.958-5.844-7.447-15.417-7.447-28.738
			c0-13.648,2.577-23.482,7.75-29.517c5.174-6.036,11.893-9.053,20.162-9.053c5.794,0,10.593,1.595,14.398,4.751
			C80.223,29.725,82.641,34.321,83.69,40.356L83.69,40.356z M50.517,71.504c0,4.631,1.085,8.22,3.271,10.736
			c2.188,2.532,4.691,3.797,7.5,3.797c2.722,0,4.961-1.04,6.775-3.105c1.812-2.062,2.702-5.461,2.702-10.163
			c0-4.837-0.958-8.394-2.914-10.648c-1.939-2.254-4.375-3.381-7.291-3.381c-2.806,0-5.191,1.075-7.129,3.225
			C51.479,64.117,50.517,67.307,50.517,71.504L50.517,71.504z"/>
	</g>
	<g>
		<path fill-rule="evenodd" clip-rule="evenodd" fill="#E30613" d="M152.43,210.936c23.061,29.566,51.256,56.674,82.334,82.398
			c-30.229,26.657-60.197,53.396-82.334,82.637c-30.71-36.594-59.262-60.452-84.036-82.637
			C92.728,271.986,121.649,245.332,152.43,210.936L152.43,210.936z"/>
	</g>
	<g>
		<path fill-rule="evenodd" clip-rule="evenodd" fill="#E30613" d="M62.392,106.479c10.494,13.458,23.328,25.792,37.471,37.501
			c-13.755,12.133-27.396,24.302-37.471,37.609c-13.976-16.654-26.97-27.513-38.247-37.609
			C35.221,134.265,48.383,122.134,62.392,106.479L62.392,106.479z"/>
	</g>
</g>
</svg>
