<?xml version="1.0" encoding="utf-8"?>
<!-- Generator: Adobe Illustrator 15.1.0, SVG Export Plug-In . SVG Version: 6.00 Build 0)  -->
<!DOCTYPE svg PUBLIC "-//W3C//DTD SVG 1.1//EN" "http://www.w3.org/Graphics/SVG/1.1/DTD/svg11.dtd">
<svg version="1.1" id="Layer_1" xmlns="http://www.w3.org/2000/svg" xmlns:xlink="http://www.w3.org/1999/xlink" x="0px" y="0px"
	 width="300px" height="412px" viewBox="0 0 300 412" enable-background="new 0 0 300 412" xml:space="preserve">
<g>
	<g>
		<path fill="#FFFFFF" d="M19.406,2.479h261.182c9.311,0,16.93,7.586,16.93,16.859v373.333c0,9.274-7.619,16.86-16.93,16.86H19.406
			c-9.31,0-16.927-7.586-16.927-16.86V19.338C2.479,10.064,10.096,2.479,19.406,2.479L19.406,2.479z"/>
		<path fill="#C6C6C6" d="M280.588,412H19.406C8.706,412,0,403.329,0,392.671V19.338C0,8.681,8.706,0.01,19.406,0.01h261.182
			c10.703,0,19.41,8.671,19.41,19.328v373.333C299.998,403.329,291.291,412,280.588,412z M19.406,4.947
			c-7.967,0-14.448,6.456-14.448,14.391v373.333c0,7.936,6.481,14.392,14.448,14.392h261.182c7.969,0,14.451-6.456,14.451-14.392
			V19.338c0-7.935-6.482-14.391-14.451-14.391H19.406z"/>
	</g>
	<g>
		<path d="M34.112,34.859V21.41h49.141V31.92c-4.047,4.033-8.169,9.805-12.376,17.341c-4.189,7.519-7.384,15.53-9.582,23.999
			c-2.199,8.486-3.282,16.056-3.249,22.73H44.184c0.247-10.46,2.376-21.111,6.424-31.974c4.034-10.881,9.428-20.583,16.184-29.157
			H34.112L34.112,34.859z"/>
	</g>
	<g>
		<path fill-rule="evenodd" clip-rule="evenodd" d="M147.603,328.407c0.08-3.037-0.408-3.419-2.483-2.598l-16.675,13.818
			c-33.679,26.971-84.185-12.822-47.077-56.203c26.616-25.103,51.216-48.794,69.971-73.334
			c18.514,22.469,39.074,45.375,65.381,70.071c18.756,18.078,23.408,37.368,9.801,57.387c-26.072,20.014-48.807,9.871-66.02-7.566
			c-2.324-2.354-5.539-7.836-5.695-1.111c2.895,27.327,11.604,36.533,35.584,47.891l-76.963-0.154
			C138.254,364.53,146.231,355.646,147.603,328.407L147.603,328.407z"/>
	</g>
	<g>
		<path fill-rule="evenodd" clip-rule="evenodd" d="M58.633,158.346c0.037-1.379-0.184-1.551-1.125-1.179l-7.555,6.26
			c-15.26,12.221-38.142-5.809-21.33-25.463c12.06-11.375,23.204-22.107,31.702-33.227c8.388,10.18,17.706,20.559,29.624,31.748
			c8.498,8.192,10.607,16.931,4.438,26.002c-11.809,9.067-22.111,4.471-29.909-3.43c-1.055-1.064-2.512-3.549-2.583-0.503
			c1.312,12.382,5.258,16.553,16.124,21.699l-34.871-0.069C54.398,174.71,58.013,170.686,58.633,158.346L58.633,158.346z"/>
	</g>
</g>
</svg>
