<?xml version="1.0" encoding="utf-8"?>
<!-- Generator: Adobe Illustrator 15.1.0, SVG Export Plug-In . SVG Version: 6.00 Build 0)  -->
<!DOCTYPE svg PUBLIC "-//W3C//DTD SVG 1.1//EN" "http://www.w3.org/Graphics/SVG/1.1/DTD/svg11.dtd">
<svg version="1.1" id="Layer_1" xmlns="http://www.w3.org/2000/svg" xmlns:xlink="http://www.w3.org/1999/xlink" x="0px" y="0px"
	 width="300px" height="412px" viewBox="0 0 300 412" enable-background="new 0 0 300 412" xml:space="preserve">
<g>
	<g>
		<path fill="#FFFFFF" d="M19.407,2.472h261.187c9.311,0,16.928,7.587,16.928,16.861v373.338c0,9.273-7.617,16.86-16.928,16.86
			H19.407c-9.311,0-16.928-7.587-16.928-16.86V19.333C2.479,10.059,10.096,2.472,19.407,2.472L19.407,2.472z"/>
		<path fill="#C6C6C6" d="M280.594,412H19.407C8.706,412,0,403.329,0,392.671V19.333C0,8.675,8.706,0.003,19.407,0.003h261.187
			c10.701,0,19.406,8.672,19.406,19.33v373.338C300,403.329,291.295,412,280.594,412z M19.407,4.941
			c-7.968,0-14.45,6.457-14.45,14.392v373.338c0,7.936,6.482,14.392,14.45,14.392h261.187c7.967,0,14.449-6.456,14.449-14.392
			V19.333c0-7.936-6.482-14.392-14.449-14.392H19.407z"/>
	</g>
	<g>
		<path fill-rule="evenodd" clip-rule="evenodd" d="M190.002,374.388l-75.452-0.794c27.258-13.934,34.53-29.84,33.234-55.778
			c-0.183-3.685-0.406-6.944-0.705-7.445c-1.231-2.067-14.083,11.117-15.412,12.907c-10.033,13.553-55.066,24.466-64.387-11.253
			c-6.708-25.698,17.838-41.127,41.551-37.74c4.986,0.71,14.004,5.342,21.017,11.601c6.585,5.882,9.84,12.622,15.832,12.897
			c9.14,0.419-5.807-21.536-11.267-27.337c-23.363-24.817-17.647-66.628,19.065-66.628c35.557,0,40.043,36.25,17.26,65.196
			c-4.582,5.821-18.424,22.923-11.338,28.239c1.701,1.275,6.857-1.503,12.018-7.079c9.184-9.928,22.709-18.547,36.736-18.547
			c15.283,0,29.088,10.062,31.213,25.693c3.201,23.557-10.342,38.048-33.166,39.415c-23.223,1.386-40.023-27.368-46.207-27.368
			c-1.148,0-1.617,3.256-1.773,6.854C156.916,347.512,164.359,358.916,190.002,374.388L190.002,374.388z"/>
	</g>
	<g>
		<path fill-rule="evenodd" clip-rule="evenodd" d="M87.219,177.856l-35.734-0.359c12.91-6.268,16.354-13.428,15.74-25.102
			c-0.086-1.661-0.192-3.126-0.334-3.352c-0.583-0.929-6.669,5.003-7.298,5.812c-4.752,6.098-26.081,11.008-30.494-5.066
			c-3.175-11.568,8.448-18.51,19.679-16.986c2.362,0.319,6.631,2.403,9.953,5.221c3.118,2.646,4.661,5.68,7.497,5.805
			c4.33,0.189-2.75-9.693-5.335-12.305c-11.064-11.169-8.357-29.987,9.029-29.987c16.84,0,18.964,16.314,8.174,29.343
			c-2.17,2.621-8.726,10.317-5.371,12.708c0.807,0.573,3.249-0.675,5.693-3.184c4.35-4.467,10.755-8.35,17.398-8.35
			c7.239,0,13.774,4.529,14.781,11.565c1.517,10.603-4.896,17.128-15.706,17.739c-10.998,0.625-18.957-12.318-21.884-12.318
			c-0.543,0-0.767,1.469-0.839,3.086C71.55,165.761,75.075,170.894,87.219,177.856L87.219,177.856z"/>
	</g>
	<g>
		<path d="M106.679,92.36H90.211l-6.543-17.016H53.716L47.541,92.36H31.492l29.185-74.885h15.997L106.679,92.36L106.679,92.36z
			 M78.82,62.737L68.492,34.947L58.374,62.737H78.82L78.82,62.737z"/>
	</g>
</g>
</svg>
