<?xml version="1.0" encoding="utf-8"?>
<!-- Generator: Adobe Illustrator 15.1.0, SVG Export Plug-In . SVG Version: 6.00 Build 0)  -->
<!DOCTYPE svg PUBLIC "-//W3C//DTD SVG 1.1//EN" "http://www.w3.org/Graphics/SVG/1.1/DTD/svg11.dtd">
<svg version="1.1" id="Layer_1" xmlns="http://www.w3.org/2000/svg" xmlns:xlink="http://www.w3.org/1999/xlink" x="0px" y="0px"
	 width="300px" height="412px" viewBox="0 0 300 412" enable-background="new 0 0 300 412" xml:space="preserve">
<g>
	<g>
		<path fill="#FFFFFF" d="M19.41,2.529h261.182c9.314,0,16.93,7.587,16.93,16.861v373.336c0,9.273-7.615,16.859-16.93,16.859H19.41
			c-9.312,0-16.929-7.586-16.929-16.859V19.391C2.481,10.116,10.097,2.529,19.41,2.529L19.41,2.529z"/>
		<path fill="#C6C6C6" d="M280.592,412.055H19.41c-10.702,0-19.408-8.67-19.408-19.328V19.391c0-10.659,8.706-19.33,19.408-19.33
			h261.182c10.703,0,19.408,8.671,19.408,19.33v373.336C300,403.385,291.295,412.055,280.592,412.055z M19.41,4.999
			c-7.968,0-14.45,6.457-14.45,14.392v373.336c0,7.935,6.482,14.391,14.45,14.391h261.182c7.969,0,14.451-6.456,14.451-14.391
			V19.391c0-7.936-6.482-14.392-14.451-14.392H19.41z"/>
	</g>
	<g>
		<path fill-rule="evenodd" clip-rule="evenodd" fill="#E30613" d="M153.305,368.492l-28.709-33.734
			c-19.588-23.02-65.148-63.563-58.21-99.545c6.733-34.905,66.741-39.784,79.129-13.161c1.885,4.045,2.492,7.25,4.057,8.845
			c0.81,0.878,1.855,1.315,3.07,1.315c1.678,0,2.953-0.438,3.766-1.315c1.68-1.705,1.889-5.413,4.402-8.845
			c30.504-41.68,100.68-0.486,73.529,48.005c-5.412,9.673-12.973,17.785-26.9,34.4c-13.93,16.621-22.115,27.251-25.604,31.259
			L153.305,368.492L153.305,368.492z"/>
	</g>
	<g>
		<path fill="#E30613" d="M107.13,92.417H90.664l-6.543-17.017H54.167l-6.174,17.017H31.943l29.187-74.885h15.997L107.13,92.417
			L107.13,92.417z M79.272,62.794l-10.327-27.79l-10.121,27.79H79.272L79.272,62.794z"/>
	</g>
	<g>
		<path fill-rule="evenodd" clip-rule="evenodd" fill="#E30613" d="M72.453,172.927L59.5,158.22
			c-8.839-10.037-29.395-27.715-26.261-43.401c3.036-15.218,30.111-17.344,35.701-5.74c0.848,1.765,1.123,3.162,1.828,3.856
			c0.366,0.384,0.836,0.577,1.386,0.577c0.757,0,1.333-0.193,1.699-0.577c0.756-0.743,0.853-2.36,1.987-3.856
			c13.763-18.168,45.425-0.208,33.176,20.933c-2.444,4.215-5.854,7.753-12.136,14.995c-6.288,7.249-9.979,11.884-11.552,13.629
			L72.453,172.927L72.453,172.927z"/>
	</g>
</g>
</svg>
