<?xml version="1.0" encoding="utf-8"?>
<!-- Generator: Adobe Illustrator 15.1.0, SVG Export Plug-In . SVG Version: 6.00 Build 0)  -->
<!DOCTYPE svg PUBLIC "-//W3C//DTD SVG 1.1//EN" "http://www.w3.org/Graphics/SVG/1.1/DTD/svg11.dtd">
<svg version="1.1" id="Layer_1" xmlns="http://www.w3.org/2000/svg" xmlns:xlink="http://www.w3.org/1999/xlink" x="0px" y="0px"
	 width="300px" height="412px" viewBox="0 0 300 412" enable-background="new 0 0 300 412" xml:space="preserve">
<g>
	<g>
		<path fill="#FFFFFF" d="M19.406,2.479h261.182c9.311,0,16.93,7.586,16.93,16.86v373.333c0,9.272-7.619,16.859-16.93,16.859H19.406
			c-9.31,0-16.927-7.587-16.927-16.859V19.339C2.479,10.064,10.096,2.479,19.406,2.479L19.406,2.479z"/>
		<path fill="#C6C6C6" d="M280.588,412H19.406C8.706,412,0,403.33,0,392.672V19.339C0,8.681,8.706,0.01,19.406,0.01h261.182
			c10.703,0,19.41,8.671,19.41,19.329v373.333C299.998,403.33,291.291,412,280.588,412z M19.406,4.947
			c-7.967,0-14.448,6.457-14.448,14.392v373.333c0,7.935,6.481,14.391,14.448,14.391h261.182c7.969,0,14.451-6.456,14.451-14.391
			V19.339c0-7.935-6.482-14.392-14.451-14.392H19.406z"/>
	</g>
	<g>
		<path fill-rule="evenodd" clip-rule="evenodd" d="M148.513,326.95c0.08-3.038-0.406-3.422-2.481-2.597l-16.674,13.814
			c-33.683,26.971-84.188-12.822-47.078-56.203c26.617-25.103,51.213-48.793,69.969-73.333
			c18.514,22.469,39.078,45.374,65.385,70.07c18.754,18.078,23.406,37.37,9.797,57.388c-26.07,20.015-48.807,9.87-66.02-7.567
			c-2.322-2.354-5.539-7.834-5.693-1.109c2.895,27.325,11.604,36.531,35.586,47.89l-76.964-0.154
			C139.165,363.072,147.144,354.188,148.513,326.95L148.513,326.95z"/>
	</g>
	<g>
		<path d="M98.037,83.351c3.676,2.626,7.702,4.732,12.036,6.271l-5.53,10.588c-2.273-0.675-4.494-1.606-6.662-2.781
			c-0.485-0.24-3.816-2.433-10.007-6.581c-4.89,2.125-10.284,3.179-16.215,3.179c-11.443,0-20.41-3.351-26.896-10.071
			c-6.486-6.703-9.729-16.133-9.729-28.276c0-12.124,3.243-21.536,9.746-28.273c6.503-6.719,15.331-10.087,26.483-10.087
			c11.027,0,19.787,3.369,26.255,10.087c6.469,6.737,9.712,16.149,9.712,28.273c0,6.41-0.901,12.04-2.687,16.896
			C103.171,76.286,101.002,79.877,98.037,83.351L98.037,83.351z M85.932,74.903c1.941-2.261,3.382-4.992,4.354-8.201
			c0.953-3.196,1.437-6.875,1.437-11.023c0-8.583-1.888-14.975-5.686-19.207c-3.799-4.229-8.76-6.355-14.88-6.355
			c-6.14,0-11.101,2.125-14.914,6.375c-3.815,4.25-5.724,10.639-5.724,19.188c0,8.654,1.908,15.15,5.724,19.451
			c3.813,4.3,8.618,6.459,14.446,6.459c2.166,0,4.229-0.361,6.157-1.069c-3.053-1.988-6.157-3.542-9.297-4.665l4.215-8.549
			C76.706,68.997,81.442,71.518,85.932,74.903L85.932,74.903z"/>
	</g>
	<g>
		<path fill-rule="evenodd" clip-rule="evenodd" d="M67.954,157.48c0.037-1.378-0.184-1.55-1.123-1.177l-7.555,6.26
			c-15.259,12.22-38.145-5.811-21.333-25.464c12.063-11.374,23.207-22.107,31.705-33.225c8.388,10.178,17.704,20.557,29.623,31.746
			c8.496,8.191,10.605,16.932,4.439,26.003c-11.812,9.066-22.114,4.473-29.913-3.431c-1.051-1.064-2.509-3.548-2.579-0.502
			c1.312,12.381,5.255,16.553,16.124,21.697l-34.872-0.068C63.719,173.848,67.333,169.822,67.954,157.48L67.954,157.48z"/>
	</g>
</g>
</svg>
