<?xml version="1.0" encoding="utf-8"?>
<!-- Generator: Adobe Illustrator 15.1.0, SVG Export Plug-In . SVG Version: 6.00 Build 0)  -->
<!DOCTYPE svg PUBLIC "-//W3C//DTD SVG 1.1//EN" "http://www.w3.org/Graphics/SVG/1.1/DTD/svg11.dtd">
<svg version="1.1" id="Layer_1" xmlns="http://www.w3.org/2000/svg" xmlns:xlink="http://www.w3.org/1999/xlink" x="0px" y="0px"
	 width="300px" height="412px" viewBox="0 0 300 412" enable-background="new 0 0 300 412" xml:space="preserve">
<g>
	<g>
		<path fill="#FFFFFF" d="M19.407,2.473h261.187c9.311,0,16.928,7.587,16.928,16.858v373.338c0,9.276-7.617,16.862-16.928,16.862
			H19.407c-9.311,0-16.928-7.586-16.928-16.862V19.331C2.479,10.06,10.096,2.473,19.407,2.473L19.407,2.473z"/>
		<path fill="#C6C6C6" d="M280.594,412H19.407C8.706,412,0,403.328,0,392.669V19.331C0,8.675,8.706,0.004,19.407,0.004h261.187
			C291.295,0.004,300,8.675,300,19.331v373.338C300,403.328,291.295,412,280.594,412z M19.407,4.942
			c-7.968,0-14.45,6.455-14.45,14.389v373.338c0,7.937,6.482,14.394,14.45,14.394h261.187c7.967,0,14.449-6.457,14.449-14.394
			V19.331c0-7.934-6.482-14.389-14.449-14.389H19.407z"/>
	</g>
	<g>
		<path fill-rule="evenodd" clip-rule="evenodd" d="M191.523,373.865l-75.453-0.795c27.259-13.931,34.531-29.839,33.234-55.776
			c-0.183-3.688-0.405-6.942-0.705-7.445c-1.231-2.067-14.084,11.116-15.411,12.908c-10.034,13.553-55.068,24.462-64.388-11.257
			c-6.707-25.699,17.838-41.126,41.551-37.741c4.987,0.712,14.004,5.343,21.018,11.604c6.585,5.882,9.839,12.622,15.831,12.896
			c9.14,0.417-5.808-21.534-11.267-27.334c-23.365-24.82-17.647-66.632,19.063-66.632c35.559,0,40.043,36.253,17.26,65.198
			c-4.582,5.822-18.424,22.922-11.336,28.236c1.701,1.277,6.857-1.499,12.016-7.075c9.186-9.928,22.711-18.547,36.738-18.547
			c15.283,0,29.086,10.059,31.211,25.693c3.201,23.555-10.34,38.048-33.164,39.411c-23.225,1.389-40.027-27.367-46.209-27.367
			c-1.146,0-1.617,3.255-1.771,6.854C158.438,346.987,165.879,358.394,191.523,373.865L191.523,373.865z"/>
	</g>
	<g>
		<path fill-rule="evenodd" clip-rule="evenodd" d="M81.16,177.928l-35.734-0.356c12.909-6.271,16.353-13.431,15.74-25.105
			c-0.087-1.658-0.192-3.123-0.334-3.35c-0.583-0.932-6.67,5.003-7.298,5.809c-4.753,6.101-26.081,11.01-30.495-5.066
			c-3.176-11.564,8.448-18.509,19.68-16.985c2.36,0.318,6.63,2.405,9.953,5.223c3.118,2.646,4.66,5.677,7.497,5.802
			c4.329,0.189-2.75-9.693-5.335-12.302c-11.064-11.172-8.357-29.99,9.029-29.99c16.839,0,18.964,16.316,8.174,29.344
			c-2.17,2.62-8.726,10.316-5.371,12.71c0.807,0.573,3.249-0.675,5.693-3.185c4.349-4.47,10.755-8.349,17.398-8.349
			c7.239,0,13.775,4.529,14.781,11.564c1.517,10.603-4.896,17.125-15.706,17.737c-10.998,0.627-18.957-12.316-21.884-12.316
			c-0.542,0-0.767,1.465-0.839,3.083C65.49,165.832,69.015,170.965,81.16,177.928L81.16,177.928z"/>
	</g>
	<g>
		<polygon points="55.554,92.721 55.554,29.202 34.104,29.202 34.104,16.263 91.565,16.263 91.565,29.202 70.167,29.202 
			70.167,92.721 55.554,92.721 		"/>
	</g>
</g>
</svg>
