<?xml version="1.0" encoding="utf-8"?>
<!-- Generator: Adobe Illustrator 15.1.0, SVG Export Plug-In . SVG Version: 6.00 Build 0)  -->
<!DOCTYPE svg PUBLIC "-//W3C//DTD SVG 1.1//EN" "http://www.w3.org/Graphics/SVG/1.1/DTD/svg11.dtd">
<svg version="1.1" id="Layer_1" xmlns="http://www.w3.org/2000/svg" xmlns:xlink="http://www.w3.org/1999/xlink" x="0px" y="0px"
	 width="300px" height="412px" viewBox="0 0 300 412" enable-background="new 0 0 300 412" xml:space="preserve">
<g>
	<g>
		<path fill="#FFFFFF" d="M19.408,2.474h261.186c9.311,0,16.926,7.587,16.926,16.858v373.337c0,9.275-7.615,16.862-16.926,16.862
			H19.408c-9.312,0-16.929-7.587-16.929-16.862V19.332C2.479,10.061,10.095,2.474,19.408,2.474L19.408,2.474z"/>
		<path fill="#C6C6C6" d="M280.594,412H19.408C8.706,412,0,403.328,0,392.669V19.332C0,8.676,8.706,0.005,19.408,0.005h261.186
			c10.701,0,19.404,8.671,19.404,19.327v373.337C299.998,403.328,291.295,412,280.594,412z M19.408,4.943
			c-7.968,0-14.45,6.455-14.45,14.389v373.337c0,7.937,6.482,14.394,14.45,14.394h261.186c7.967,0,14.447-6.457,14.447-14.394
			V19.332c0-7.934-6.48-14.389-14.447-14.389H19.408z"/>
	</g>
	<g>
		<path fill-rule="evenodd" clip-rule="evenodd" fill="#E30613" d="M152.43,204.293c23.061,29.566,51.256,56.673,82.334,82.401
			c-30.229,26.655-60.197,53.395-82.334,82.634c-30.71-36.594-59.262-60.451-84.036-82.634
			C92.728,265.343,121.649,238.69,152.43,204.293L152.43,204.293z"/>
	</g>
	<g>
		<polygon fill="#E30613" points="53.196,90.544 53.196,28.835 31.748,28.835 31.748,16.264 89.207,16.264 89.207,28.835 
			67.81,28.835 67.81,90.544 53.196,90.544 		"/>
	</g>
	<g>
		<path fill-rule="evenodd" clip-rule="evenodd" fill="#E30613" d="M62.392,101.614c10.494,13.457,23.328,25.792,37.471,37.5
			c-13.755,12.132-27.396,24.302-37.471,37.611c-13.976-16.655-26.97-27.514-38.247-37.611
			C35.221,129.399,48.383,117.27,62.392,101.614L62.392,101.614z"/>
	</g>
</g>
</svg>
