<?xml version="1.0" encoding="utf-8"?>
<!-- Generator: Adobe Illustrator 15.1.0, SVG Export Plug-In . SVG Version: 6.00 Build 0)  -->
<!DOCTYPE svg PUBLIC "-//W3C//DTD SVG 1.1//EN" "http://www.w3.org/Graphics/SVG/1.1/DTD/svg11.dtd">
<svg version="1.1" id="Layer_1" xmlns="http://www.w3.org/2000/svg" xmlns:xlink="http://www.w3.org/1999/xlink" x="0px" y="0px"
	 width="300px" height="412px" viewBox="0 0 300 412" enable-background="new 0 0 300 412" xml:space="preserve">
<g>
	<g>
		<path fill="#FFFFFF" d="M19.408,2.474H280.59c9.314,0,16.93,7.587,16.93,16.858v373.337c0,9.275-7.615,16.862-16.93,16.862H19.408
			c-9.312,0-16.929-7.587-16.929-16.862V19.332C2.479,10.061,10.095,2.474,19.408,2.474L19.408,2.474z"/>
		<path fill="#C6C6C6" d="M280.59,412H19.408C8.706,412,0,403.328,0,392.669V19.332C0,8.676,8.706,0.005,19.408,0.005H280.59
			c10.703,0,19.408,8.671,19.408,19.327v373.337C299.998,403.328,291.293,412,280.59,412z M19.408,4.943
			c-7.968,0-14.45,6.455-14.45,14.389v373.337c0,7.937,6.482,14.394,14.45,14.394H280.59c7.969,0,14.451-6.457,14.451-14.394V19.332
			c0-7.934-6.482-14.389-14.451-14.389H19.408z"/>
	</g>
	<g>
		<path fill-rule="evenodd" clip-rule="evenodd" fill="#E30613" d="M154.822,367.914l-28.708-33.733
			c-19.589-23.022-65.147-63.563-58.208-99.548c6.73-34.905,66.738-39.784,79.129-13.162c1.882,4.049,2.491,7.253,4.053,8.846
			c0.811,0.878,1.854,1.318,3.07,1.318c1.678,0,2.953-0.44,3.766-1.318c1.68-1.704,1.889-5.412,4.4-8.846
			c30.508-41.679,100.682-0.483,73.533,48.009c-5.414,9.67-12.973,17.784-26.898,34.396c-13.934,16.622-22.115,27.252-25.605,31.261
			L154.822,367.914L154.822,367.914z"/>
	</g>
	<g>
		<polygon fill="#E30613" points="53.57,90.544 53.57,28.835 32.122,28.835 32.122,16.264 89.583,16.264 89.583,28.835 
			68.184,28.835 68.184,90.544 53.57,90.544 		"/>
	</g>
	<g>
		<path fill-rule="evenodd" clip-rule="evenodd" fill="#E30613" d="M64.884,173.541l-13.06-14.829
			c-8.912-10.122-29.641-27.946-26.486-43.765c3.064-15.346,30.367-17.491,36.002-5.789c0.856,1.781,1.134,3.187,1.846,3.89
			c0.368,0.385,0.842,0.58,1.397,0.58c0.763,0,1.344-0.195,1.713-0.58c0.765-0.751,0.862-2.38,2.003-3.89
			c13.879-18.32,45.808-0.211,33.454,21.105c-2.463,4.252-5.902,7.821-12.237,15.124c-6.338,7.308-10.061,11.98-11.649,13.742
			L64.884,173.541L64.884,173.541z"/>
	</g>
</g>
</svg>
