<?xml version="1.0" encoding="utf-8"?>
<!-- Generator: Adobe Illustrator 15.1.0, SVG Export Plug-In . SVG Version: 6.00 Build 0)  -->
<!DOCTYPE svg PUBLIC "-//W3C//DTD SVG 1.1//EN" "http://www.w3.org/Graphics/SVG/1.1/DTD/svg11.dtd">
<svg version="1.1" id="Layer_1" xmlns="http://www.w3.org/2000/svg" xmlns:xlink="http://www.w3.org/1999/xlink" x="0px" y="0px"
	 width="300px" height="412px" viewBox="0 0 300 412" enable-background="new 0 0 300 412" xml:space="preserve">
<g>
	<g>
		<path fill="#FFFFFF" d="M19.409,2.479h261.183c9.309,0,16.926,7.586,16.926,16.857v373.333c0,9.276-7.617,16.862-16.926,16.862
			H19.409c-9.311,0-16.93-7.586-16.93-16.862V19.336C2.479,10.064,10.098,2.479,19.409,2.479L19.409,2.479z"/>
		<path fill="#C6C6C6" d="M280.592,412H19.409C8.707,412,0,403.328,0,392.669V19.336C0,8.68,8.707,0.01,19.409,0.01h261.183
			c10.701,0,19.406,8.67,19.406,19.326v373.333C299.998,403.328,291.293,412,280.592,412z M19.409,4.947
			c-7.968,0-14.451,6.455-14.451,14.389v373.333c0,7.937,6.483,14.394,14.451,14.394h261.183c7.967,0,14.447-6.457,14.447-14.394
			V19.336c0-7.934-6.48-14.389-14.447-14.389H19.409z"/>
	</g>
	<g>
		<path fill-rule="evenodd" clip-rule="evenodd" d="M150.024,322.61c0.079-3.035-0.408-3.419-2.483-2.597l-16.675,13.817
			c-33.679,26.971-84.185-12.822-47.077-56.202c26.615-25.103,51.216-48.793,69.97-73.334
			c18.514,22.469,39.074,45.375,65.381,70.071c18.756,18.077,23.408,37.37,9.801,57.387c-26.07,20.015-48.807,9.87-66.02-7.567
			c-2.324-2.354-5.539-7.837-5.695-1.108c2.895,27.324,11.604,36.531,35.586,47.887l-76.965-0.152
			C140.675,358.735,148.652,349.851,150.024,322.61L150.024,322.61z"/>
	</g>
	<g>
		<polygon points="56.051,90.547 56.051,28.84 34.603,28.84 34.603,16.268 92.061,16.268 92.061,28.84 70.664,28.84 70.664,90.547 
			56.051,90.547 		"/>
	</g>
	<g>
		<path fill-rule="evenodd" clip-rule="evenodd" d="M61.054,155.222c0.037-1.375-0.184-1.55-1.125-1.178l-7.555,6.26
			c-15.26,12.223-38.142-5.808-21.33-25.464c12.059-11.373,23.203-22.106,31.702-33.225c8.388,10.181,17.706,20.56,29.624,31.749
			c8.498,8.191,10.606,16.932,4.438,26c-11.809,9.069-22.111,4.473-29.91-3.428c-1.054-1.067-2.512-3.552-2.583-0.502
			c1.312,12.38,5.258,16.55,16.124,21.698l-34.87-0.071C56.818,171.589,60.433,167.563,61.054,155.222L61.054,155.222z"/>
	</g>
</g>
</svg>
