<?xml version="1.0" encoding="utf-8"?>
<!-- Generator: Adobe Illustrator 15.1.0, SVG Export Plug-In . SVG Version: 6.00 Build 0)  -->
<!DOCTYPE svg PUBLIC "-//W3C//DTD SVG 1.1//EN" "http://www.w3.org/Graphics/SVG/1.1/DTD/svg11.dtd">
<svg version="1.1" id="Layer_1" xmlns="http://www.w3.org/2000/svg" xmlns:xlink="http://www.w3.org/1999/xlink" x="0px" y="0px"
	 width="300px" height="412px" viewBox="0 0 300 412" enable-background="new 0 0 300 412" xml:space="preserve">
<g>
	<g>
		<path fill="#FFFFFF" d="M19.409,2.475h261.183c9.312,0,16.928,7.586,16.928,16.859v373.335c0,9.276-7.615,16.862-16.928,16.862
			H19.409c-9.313,0-16.93-7.586-16.93-16.862V19.334C2.479,10.061,10.095,2.475,19.409,2.475L19.409,2.475z"/>
		<path fill="#C6C6C6" d="M280.592,412H19.409C8.707,412,0,403.328,0,392.669V19.334C0,8.677,8.707,0.006,19.409,0.006h261.183
			c10.701,0,19.406,8.671,19.406,19.328v373.335C299.998,403.328,291.293,412,280.592,412z M19.409,4.944
			c-7.968,0-14.451,6.456-14.451,14.39v373.335c0,7.937,6.483,14.394,14.451,14.394h261.183c7.969,0,14.449-6.457,14.449-14.394
			V19.334c0-7.935-6.48-14.39-14.449-14.39H19.409z"/>
	</g>
	<g>
		<path fill-rule="evenodd" clip-rule="evenodd" fill="#E30613" d="M151.797,371.929l-28.708-33.733
			c-19.589-23.019-65.15-63.562-58.21-99.545c6.733-34.906,66.74-39.785,79.128-13.165c1.885,4.049,2.492,7.253,4.057,8.847
			c0.811,0.878,1.853,1.317,3.069,1.317c1.678,0,2.955-0.439,3.766-1.317c1.68-1.703,1.891-5.413,4.402-8.847
			c30.506-41.677,100.678-0.483,73.529,48.009c-5.414,9.671-12.973,17.785-26.898,34.398c-13.934,16.621-22.115,27.251-25.605,31.26
			L151.797,371.929L151.797,371.929z"/>
	</g>
	<g>
		<path fill-rule="evenodd" clip-rule="evenodd" fill="#E30613" d="M64.343,176.483l-12.91-14.662
			c-8.813-10.007-29.307-27.63-26.185-43.269c3.027-15.169,30.02-17.291,35.593-5.721c0.844,1.759,1.12,3.15,1.822,3.843
			c0.366,0.384,0.834,0.574,1.381,0.574c0.757,0,1.33-0.19,1.695-0.574c0.754-0.736,0.851-2.352,1.979-3.843
			c13.724-18.115,45.289-0.21,33.077,20.866c-2.435,4.203-5.837,7.73-12.099,14.951c-6.268,7.226-9.95,11.845-11.518,13.586
			L64.343,176.483L64.343,176.483z"/>
	</g>
	<g>
		<path fill="#E30613" d="M82.494,80.363v13.183H34.812c0.531-4.981,2.067-9.701,4.659-14.165c2.58-4.464,7.684-10.377,15.285-17.75
			c6.146-5.947,9.896-9.997,11.282-12.116c1.869-2.931,2.81-5.826,2.81-8.687c0-3.154-0.812-5.582-2.444-7.29
			c-1.636-1.705-3.884-2.55-6.758-2.55c-2.844,0-5.088,0.895-6.773,2.671c-1.669,1.792-2.644,4.757-2.908,8.894l-13.55-1.415
			c0.811-7.807,3.339-13.407,7.6-16.819c4.264-3.396,9.584-5.103,15.977-5.103c7.004,0,12.506,1.983,16.506,5.911
			c3.997,3.947,5.996,8.842,5.996,14.702c0,3.324-0.578,6.496-1.718,9.511c-1.14,3.018-2.956,6.171-5.434,9.463
			c-1.653,2.188-4.627,5.342-8.908,9.445c-4.294,4.103-7.022,6.841-8.161,8.185c-1.14,1.344-2.081,2.654-2.792,3.93H82.494
			L82.494,80.363z"/>
	</g>
</g>
</svg>
