<?xml version="1.0" encoding="utf-8"?>
<!-- Generator: Adobe Illustrator 15.1.0, SVG Export Plug-In . SVG Version: 6.00 Build 0)  -->
<!DOCTYPE svg PUBLIC "-//W3C//DTD SVG 1.1//EN" "http://www.w3.org/Graphics/SVG/1.1/DTD/svg11.dtd">
<svg version="1.1" id="Layer_1" xmlns="http://www.w3.org/2000/svg" xmlns:xlink="http://www.w3.org/1999/xlink" x="0px" y="0px"
	 width="300px" height="412px" viewBox="0 0 300 412" enable-background="new 0 0 300 412" xml:space="preserve">
<g>
	<g>
		<path fill="#FFFFFF" d="M19.409,2.473h261.185c9.311,0,16.928,7.587,16.928,16.86v373.336c0,9.276-7.617,16.862-16.928,16.862
			H19.409c-9.311,0-16.93-7.586-16.93-16.862V19.333C2.479,10.06,10.098,2.473,19.409,2.473L19.409,2.473z"/>
		<path fill="#C6C6C6" d="M280.594,412H19.409C8.707,412,0,403.328,0,392.669V19.333C0,8.675,8.707,0.004,19.409,0.004h261.185
			C291.295,0.004,300,8.675,300,19.333v373.336C300,403.328,291.295,412,280.594,412z M19.409,4.942
			c-7.968,0-14.451,6.456-14.451,14.391v373.336c0,7.937,6.483,14.394,14.451,14.394h261.185c7.967,0,14.449-6.457,14.449-14.394
			V19.333c0-7.935-6.482-14.391-14.449-14.391H19.409z"/>
	</g>
	<g>
		<path fill="#E30613" d="M34.221,74.238l13.933-1.65c0.456,3.49,1.647,6.152,3.609,7.993c1.941,1.855,4.306,2.783,7.069,2.783
			c2.977,0,5.479-1.118,7.51-3.334c2.029-2.217,3.047-5.191,3.047-8.956c0-3.558-0.965-6.375-2.926-8.457
			c-1.941-2.095-4.323-3.128-7.124-3.128c-1.837,0-4.042,0.346-6.616,1.05l1.594-11.515c3.903,0.085,6.88-0.74,8.927-2.494
			c2.049-1.77,3.081-4.107,3.081-7.03c0-2.492-0.754-4.47-2.256-5.946c-1.509-1.479-3.522-2.218-6.004-2.218
			c-2.469,0-4.569,0.842-6.302,2.525c-1.752,1.668-2.821,4.126-3.187,7.341l-13.29-2.201c0.931-4.468,2.313-8.045,4.185-10.708
			c1.856-2.665,4.465-4.763,7.79-6.291c3.344-1.531,7.072-2.304,11.206-2.304c7.087,0,12.759,2.218,17.031,6.652
			c3.518,3.626,5.287,7.716,5.287,12.289c0,6.481-3.606,11.653-10.82,15.504c4.309,0.91,7.739,2.939,10.33,6.102
			c2.575,3.145,3.867,6.961,3.867,11.429c0,6.481-2.416,11.999-7.229,16.57c-4.813,4.555-10.818,6.841-17.995,6.841
			c-6.809,0-12.445-1.925-16.927-5.759C37.528,85.48,34.937,80.459,34.221,74.238L34.221,74.238z"/>
	</g>
	<g>
		<path fill-rule="evenodd" clip-rule="evenodd" fill="#E30613" d="M148.795,208.856c23.061,29.566,51.256,56.673,82.334,82.399
			c-30.227,26.656-60.197,53.394-82.334,82.635c-30.709-36.593-59.262-60.45-84.035-82.635
			C89.094,269.904,118.015,243.252,148.795,208.856L148.795,208.856z"/>
	</g>
	<g>
		<path fill-rule="evenodd" clip-rule="evenodd" fill="#E30613" d="M59.974,105.127c10.495,13.457,23.328,25.794,37.471,37.501
			c-13.754,12.134-27.396,24.303-37.471,37.609c-13.975-16.654-26.97-27.512-38.247-37.609
			C32.803,132.913,45.965,120.782,59.974,105.127L59.974,105.127z"/>
	</g>
</g>
</svg>
