<?xml version="1.0" encoding="utf-8"?>
<!-- Generator: Adobe Illustrator 15.1.0, SVG Export Plug-In . SVG Version: 6.00 Build 0)  -->
<!DOCTYPE svg PUBLIC "-//W3C//DTD SVG 1.1//EN" "http://www.w3.org/Graphics/SVG/1.1/DTD/svg11.dtd">
<svg version="1.1" id="Layer_1" xmlns="http://www.w3.org/2000/svg" xmlns:xlink="http://www.w3.org/1999/xlink" x="0px" y="0px"
	 width="300px" height="412px" viewBox="0 0 300 412" enable-background="new 0 0 300 412" xml:space="preserve">
<g>
	<g>
		<path fill="#FFFFFF" d="M19.409,2.475h261.185c9.311,0,16.928,7.586,16.928,16.859v373.337c0,9.274-7.617,16.86-16.928,16.86
			H19.409c-9.311,0-16.93-7.586-16.93-16.86V19.334C2.479,10.061,10.098,2.475,19.409,2.475L19.409,2.475z"/>
		<path fill="#C6C6C6" d="M280.594,412H19.409C8.707,412,0,403.329,0,392.671V19.334C0,8.677,8.707,0.006,19.409,0.006h261.185
			C291.295,0.006,300,8.677,300,19.334v373.337C300,403.329,291.295,412,280.594,412z M19.409,4.944
			c-7.968,0-14.451,6.456-14.451,14.39v373.337c0,7.936,6.483,14.392,14.451,14.392h261.185c7.967,0,14.449-6.456,14.449-14.392
			V19.334c0-7.935-6.482-14.39-14.449-14.39H19.409z"/>
	</g>
	<g>
		<path fill="#E30613" d="M33.693,34.856V21.406h49.142v10.511c-4.051,4.033-8.17,9.806-12.376,17.341
			c-4.191,7.52-7.385,15.531-9.585,24c-2.2,8.485-3.283,16.056-3.246,22.729H43.765c0.247-10.459,2.375-21.111,6.423-31.974
			c4.034-10.88,9.429-20.582,16.184-29.156H33.693L33.693,34.856z"/>
	</g>
	<g>
		<path fill-rule="evenodd" clip-rule="evenodd" fill="#E30613" d="M150.011,210.089c23.061,29.569,51.256,56.675,82.334,82.402
			c-30.229,26.655-60.197,53.394-82.334,82.634c-30.709-36.593-59.262-60.451-84.036-82.634
			C90.31,271.14,119.231,244.486,150.011,210.089L150.011,210.089z"/>
	</g>
	<g>
		<path fill-rule="evenodd" clip-rule="evenodd" fill="#E30613" d="M59.974,104.737c10.495,13.458,23.328,25.793,37.471,37.502
			c-13.754,12.131-27.396,24.3-37.471,37.609c-13.975-16.655-26.97-27.513-38.247-37.609
			C32.803,132.521,45.965,120.391,59.974,104.737L59.974,104.737z"/>
	</g>
</g>
</svg>
