<?xml version="1.0" encoding="utf-8"?>
<!-- Generator: Adobe Illustrator 15.1.0, SVG Export Plug-In . SVG Version: 6.00 Build 0)  -->
<!DOCTYPE svg PUBLIC "-//W3C//DTD SVG 1.1//EN" "http://www.w3.org/Graphics/SVG/1.1/DTD/svg11.dtd">
<svg version="1.1" id="Layer_1" xmlns="http://www.w3.org/2000/svg" xmlns:xlink="http://www.w3.org/1999/xlink" x="0px" y="0px"
	 width="300px" height="412px" viewBox="0 0 300 412" enable-background="new 0 0 300 412" xml:space="preserve">
<g>
	<g>
		<path fill="#FFFFFF" d="M19.409,2.475h261.183c9.312,0,16.928,7.587,16.928,16.858V392.67c0,9.275-7.615,16.861-16.928,16.861
			H19.409c-9.313,0-16.93-7.586-16.93-16.861V19.333C2.479,10.062,10.095,2.475,19.409,2.475L19.409,2.475z"/>
		<path fill="#C6C6C6" d="M280.592,412H19.409C8.707,412,0,403.329,0,392.67V19.333C0,8.677,8.707,0.006,19.409,0.006h261.183
			c10.701,0,19.406,8.671,19.406,19.327V392.67C299.998,403.329,291.293,412,280.592,412z M19.409,4.944
			c-7.968,0-14.451,6.455-14.451,14.389V392.67c0,7.937,6.483,14.393,14.451,14.393h261.183c7.969,0,14.449-6.456,14.449-14.393
			V19.333c0-7.934-6.48-14.389-14.449-14.389H19.409z"/>
	</g>
	<g>
		<path fill-rule="evenodd" clip-rule="evenodd" fill="#E30613" d="M152.889,374.036l-28.708-33.734
			c-19.589-23.019-65.147-63.562-58.208-99.544c6.73-34.905,66.738-39.784,79.128-13.165c1.882,4.049,2.489,7.252,4.054,8.846
			c0.811,0.877,1.853,1.317,3.069,1.317c1.682,0,2.955-0.44,3.766-1.317c1.68-1.703,1.891-5.413,4.402-8.846
			c30.508-41.679,100.682-0.482,73.531,48.009c-5.414,9.669-12.975,17.784-26.898,34.399
			c-13.934,16.618-22.117,27.252-25.605,31.258L152.889,374.036L152.889,374.036z"/>
	</g>
	<g>
		<path fill="#E30613" d="M37.548,79.09l13.511-1.572c0.34,2.897,1.205,5.042,2.596,6.438c1.389,1.394,3.22,2.091,5.511,2.091
			c2.88,0,5.324-1.394,7.34-4.184c2.035-2.789,3.322-8.586,3.883-17.401c-3.509,4.309-7.9,6.458-13.159,6.458
			c-5.729,0-10.678-2.344-14.834-6.994c-4.153-4.667-6.24-10.731-6.24-18.205c0-7.798,2.206-14.076,6.597-18.849
			c4.374-4.757,9.97-7.155,16.75-7.155c7.394,0,13.446,3.021,18.194,9.049c4.729,6.028,7.102,15.933,7.102,29.723
			c0,14.057-2.472,24.179-7.407,30.401c-4.936,6.206-11.36,9.318-19.28,9.318c-5.696,0-10.291-1.593-13.8-4.792
			C40.803,90.214,38.549,85.44,37.548,79.09L37.548,79.09z M69.151,46.918c0-4.757-1.035-8.442-3.102-11.054
			c-2.069-2.628-4.477-3.933-7.188-3.933c-2.578,0-4.732,1.073-6.427,3.219c-1.713,2.146-2.56,5.668-2.56,10.571
			c0,4.952,0.933,8.599,2.781,10.909c1.849,2.324,4.17,3.484,6.952,3.484c2.678,0,4.949-1.107,6.78-3.342
			C68.235,54.535,69.151,51.246,69.151,46.918L69.151,46.918z"/>
	</g>
	<g>
		<path fill-rule="evenodd" clip-rule="evenodd" fill="#E30613" d="M63.164,176.827l-12.907-14.656
			c-8.808-10.004-29.295-27.619-26.174-43.251c3.028-15.168,30.009-17.285,35.58-5.721c0.848,1.759,1.12,3.151,1.823,3.843
			c0.365,0.384,0.833,0.573,1.38,0.573c0.757,0,1.33-0.189,1.692-0.573c0.757-0.74,0.85-2.349,1.982-3.843
			c13.718-18.106,45.269-0.208,33.062,20.86c-2.435,4.201-5.834,7.728-12.094,14.947c-6.268,7.222-9.944,11.838-11.515,13.581
			L63.164,176.827L63.164,176.827z"/>
	</g>
</g>
</svg>
