<?xml version="1.0" encoding="utf-8"?>
<!-- Generator: Adobe Illustrator 15.1.0, SVG Export Plug-In . SVG Version: 6.00 Build 0)  -->
<!DOCTYPE svg PUBLIC "-//W3C//DTD SVG 1.1//EN" "http://www.w3.org/Graphics/SVG/1.1/DTD/svg11.dtd">
<svg version="1.1" id="Layer_1" xmlns="http://www.w3.org/2000/svg" xmlns:xlink="http://www.w3.org/1999/xlink" x="0px" y="0px"
	 width="300px" height="412px" viewBox="0 0 300 412" enable-background="new 0 0 300 412" xml:space="preserve">
<g>
	<g>
		<path fill="#FFFFFF" d="M19.407,2.472h261.187c9.311,0,16.928,7.587,16.928,16.861v373.339c0,9.272-7.617,16.859-16.928,16.859
			H19.407c-9.311,0-16.928-7.587-16.928-16.859V19.333C2.479,10.059,10.096,2.472,19.407,2.472L19.407,2.472z"/>
		<path fill="#C6C6C6" d="M280.594,412H19.407C8.706,412,0,403.33,0,392.672V19.333C0,8.675,8.706,0.003,19.407,0.003h261.187
			c10.701,0,19.406,8.672,19.406,19.33v373.339C300,403.33,291.295,412,280.594,412z M19.407,4.941
			c-7.968,0-14.45,6.457-14.45,14.392v373.339c0,7.935,6.482,14.391,14.45,14.391h261.187c7.967,0,14.449-6.456,14.449-14.391
			V19.333c0-7.936-6.482-14.392-14.449-14.392H19.407z"/>
	</g>
	<g>
		<path fill-rule="evenodd" clip-rule="evenodd" d="M191.523,376.145l-75.453-0.797c27.259-13.931,34.531-29.838,33.234-55.776
			c-0.183-3.688-0.405-6.942-0.705-7.445c-1.231-2.066-14.084,11.116-15.411,12.909c-10.034,13.553-55.068,24.461-64.388-11.258
			c-6.707-25.698,17.838-41.125,41.551-37.74c4.987,0.712,14.004,5.343,21.018,11.604c6.585,5.882,9.839,12.621,15.831,12.895
			c9.14,0.42-5.808-21.535-11.267-27.333c-23.365-24.821-17.647-66.633,19.063-66.633c35.559,0,40.043,36.253,17.26,65.199
			c-4.582,5.82-18.424,22.923-11.336,28.237c1.701,1.275,6.857-1.499,12.016-7.076c9.186-9.927,22.711-18.546,36.738-18.546
			c15.283,0,29.086,10.059,31.211,25.691c3.201,23.556-10.34,38.049-33.164,39.413c-23.225,1.389-40.027-27.368-46.209-27.368
			c-1.146,0-1.617,3.257-1.771,6.855C158.438,349.265,165.879,360.672,191.523,376.145L191.523,376.145z"/>
	</g>
	<g>
		<path fill-rule="evenodd" clip-rule="evenodd" d="M91.647,179.602l-35.734-0.355c12.91-6.271,16.353-13.431,15.741-25.106
			c-0.088-1.661-0.193-3.126-0.334-3.352c-0.583-0.929-6.67,5.002-7.299,5.81c-4.752,6.099-26.08,11.012-30.494-5.065
			c-3.175-11.567,8.448-18.51,19.679-16.986c2.36,0.32,6.631,2.402,9.953,5.221c3.118,2.648,4.66,5.681,7.497,5.806
			c4.329,0.189-2.75-9.693-5.335-12.305c-11.064-11.17-8.358-29.988,9.029-29.988c16.839,0,18.963,16.317,8.174,29.345
			c-2.17,2.619-8.726,10.316-5.371,12.707c0.807,0.577,3.249-0.674,5.692-3.185c4.349-4.466,10.755-8.348,17.398-8.348
			c7.238,0,13.774,4.528,14.781,11.564c1.516,10.601-4.896,17.126-15.707,17.74c-10.998,0.623-18.957-12.316-21.883-12.316
			c-0.545,0-0.767,1.465-0.839,3.083C75.978,167.506,79.503,172.639,91.647,179.602L91.647,179.602z"/>
	</g>
	<g>
		<polygon points="40.333,92.723 40.333,17.007 55.943,17.007 55.943,50.626 87.486,17.007 108.479,17.007 79.365,46.5 
			110.062,92.723 89.863,92.723 68.617,57.184 55.943,69.842 55.943,92.723 40.333,92.723 		"/>
	</g>
</g>
</svg>
