<?xml version="1.0" encoding="utf-8"?>
<!-- Generator: Adobe Illustrator 15.1.0, SVG Export Plug-In . SVG Version: 6.00 Build 0)  -->
<!DOCTYPE svg PUBLIC "-//W3C//DTD SVG 1.1//EN" "http://www.w3.org/Graphics/SVG/1.1/DTD/svg11.dtd">
<svg version="1.1" id="Layer_1" xmlns="http://www.w3.org/2000/svg" xmlns:xlink="http://www.w3.org/1999/xlink" x="0px" y="0px"
	 width="300px" height="412px" viewBox="0 0 300 412" enable-background="new 0 0 300 412" xml:space="preserve">
<g>
	<g>
		<path fill="#FFFFFF" d="M19.409,2.478h261.183c9.309,0,16.926,7.587,16.926,16.861v373.333c0,9.272-7.617,16.859-16.926,16.859
			H19.409c-9.311,0-16.93-7.587-16.93-16.859V19.339C2.479,10.064,10.098,2.478,19.409,2.478L19.409,2.478z"/>
		<path fill="#C6C6C6" d="M280.592,412H19.409C8.707,412,0,403.33,0,392.672V19.339C0,8.68,8.707,0.009,19.409,0.009h261.183
			c10.701,0,19.406,8.671,19.406,19.33v373.333C299.998,403.33,291.293,412,280.592,412z M19.409,4.947
			c-7.968,0-14.451,6.457-14.451,14.392v373.333c0,7.935,6.483,14.391,14.451,14.391h261.183c7.967,0,14.447-6.456,14.447-14.391
			V19.339c0-7.936-6.48-14.392-14.447-14.392H19.409z"/>
	</g>
	<g>
		<path fill-rule="evenodd" clip-rule="evenodd" d="M150.024,324.889c0.079-3.034-0.408-3.42-2.483-2.595l-16.675,13.815
			c-33.679,26.971-84.185-12.821-47.077-56.202c26.615-25.103,51.216-48.793,69.97-73.334
			c18.514,22.469,39.074,45.375,65.381,70.071c18.756,18.077,23.408,37.37,9.801,57.387c-26.07,20.015-48.807,9.87-66.02-7.566
			c-2.324-2.354-5.539-7.835-5.695-1.109c2.895,27.324,11.604,36.532,35.586,47.891l-76.965-0.155
			C140.675,361.015,148.652,352.128,150.024,324.889L150.024,324.889z"/>
	</g>
	<g>
		<polygon points="40.83,92.727 40.83,17.012 56.439,17.012 56.439,50.631 87.982,17.012 108.977,17.012 79.863,46.505 
			110.558,92.727 90.357,92.727 69.114,57.188 56.439,69.847 56.439,92.727 40.83,92.727 		"/>
	</g>
	<g>
		<path fill-rule="evenodd" clip-rule="evenodd" d="M70.145,156.235c0.034-1.321-0.175-1.488-1.08-1.129l-7.263,6.017
			c-14.667,11.745-36.66-5.585-20.501-24.476c11.592-10.93,22.305-21.249,30.472-31.932c8.062,9.783,17.014,19.757,28.472,30.513
			c8.165,7.871,10.191,16.273,4.266,24.989c-11.353,8.715-21.255,4.297-28.75-3.295c-1.012-1.025-2.413-3.413-2.478-0.482
			c1.259,11.899,5.051,15.91,15.495,20.853l-33.516-0.067C66.075,171.967,69.55,168.096,70.145,156.235L70.145,156.235z"/>
	</g>
</g>
</svg>
