<?xml version="1.0" encoding="utf-8"?>
<!-- Generator: Adobe Illustrator 15.1.0, SVG Export Plug-In . SVG Version: 6.00 Build 0)  -->
<!DOCTYPE svg PUBLIC "-//W3C//DTD SVG 1.1//EN" "http://www.w3.org/Graphics/SVG/1.1/DTD/svg11.dtd">
<svg version="1.1" id="Layer_1" xmlns="http://www.w3.org/2000/svg" xmlns:xlink="http://www.w3.org/1999/xlink" x="0px" y="0px"
	 width="300px" height="412px" viewBox="0 0 300 412" enable-background="new 0 0 300 412" xml:space="preserve">
<g>
	<g>
		<path fill="#FFFFFF" d="M19.409,2.474h261.185c9.311,0,16.928,7.587,16.928,16.861v373.337c0,9.272-7.617,16.859-16.928,16.859
			H19.409c-9.311,0-16.93-7.587-16.93-16.859V19.335C2.479,10.061,10.098,2.474,19.409,2.474L19.409,2.474z"/>
		<path fill="#C6C6C6" d="M280.594,412H19.409C8.707,412,0,403.33,0,392.672V19.335C0,8.677,8.707,0.005,19.409,0.005h261.185
			c10.701,0,19.406,8.672,19.406,19.33v373.337C300,403.33,291.295,412,280.594,412z M19.409,4.943
			c-7.968,0-14.451,6.457-14.451,14.392v373.337c0,7.935,6.483,14.391,14.451,14.391h261.185c7.967,0,14.449-6.456,14.449-14.391
			V19.335c0-7.936-6.482-14.392-14.449-14.392H19.409z"/>
	</g>
	<g>
		<path fill-rule="evenodd" clip-rule="evenodd" fill="#E30613" d="M150.923,206.741c23.061,29.566,51.256,56.674,82.333,82.4
			c-30.225,26.656-60.197,53.396-82.333,82.636c-30.708-36.594-59.262-60.452-84.035-82.636
			C91.222,267.792,120.143,241.138,150.923,206.741L150.923,206.741z"/>
	</g>
	<g>
		<path fill="#E30613" d="M97.618,83.348c3.677,2.625,7.703,4.731,12.037,6.271l-5.531,10.587c-2.273-0.674-4.493-1.605-6.662-2.78
			c-0.484-0.24-3.815-2.434-10.006-6.582c-4.89,2.126-10.285,3.179-16.215,3.179c-11.447,0-20.411-3.351-26.897-10.071
			c-6.489-6.703-9.731-16.133-9.731-28.276c0-12.124,3.243-21.537,9.749-28.274c6.503-6.719,15.33-10.087,26.48-10.087
			c11.03,0,19.79,3.369,26.259,10.087c6.468,6.737,9.712,16.15,9.712,28.274c0,6.41-0.901,12.039-2.688,16.896
			C102.751,76.284,100.583,79.875,97.618,83.348L97.618,83.348z M85.513,74.9c1.942-2.262,3.382-4.992,4.354-8.202
			c0.953-3.196,1.437-6.875,1.437-11.022c0-8.583-1.887-14.975-5.687-19.208c-3.798-4.229-8.759-6.355-14.88-6.355
			c-6.14,0-11.101,2.126-14.917,6.375c-3.815,4.25-5.724,10.638-5.724,19.188c0,8.653,1.909,15.15,5.724,19.45
			c3.816,4.3,8.621,6.46,14.449,6.46c2.166,0,4.229-0.361,6.155-1.07c-3.05-1.987-6.155-3.541-9.296-4.664l4.216-8.549
			C76.286,68.994,81.02,71.515,85.513,74.9L85.513,74.9z"/>
	</g>
	<g>
		<path fill-rule="evenodd" clip-rule="evenodd" fill="#E30613" d="M68.048,103.871c9.834,12.609,21.859,24.167,35.109,35.136
			c-12.887,11.368-25.669,22.771-35.109,35.239c-13.094-15.604-25.27-25.777-35.832-35.239
			C42.591,129.905,54.926,118.539,68.048,103.871L68.048,103.871z"/>
	</g>
</g>
</svg>
