<?xml version="1.0" encoding="utf-8"?>
<!-- Generator: Adobe Illustrator 15.1.0, SVG Export Plug-In . SVG Version: 6.00 Build 0)  -->
<!DOCTYPE svg PUBLIC "-//W3C//DTD SVG 1.1//EN" "http://www.w3.org/Graphics/SVG/1.1/DTD/svg11.dtd">
<svg version="1.1" id="Layer_1" xmlns="http://www.w3.org/2000/svg" xmlns:xlink="http://www.w3.org/1999/xlink" x="0px" y="0px"
	 width="300px" height="412px" viewBox="0 0 300 412" enable-background="new 0 0 300 412" xml:space="preserve">
<g>
	<g>
		<path fill="#FFFFFF" d="M19.409,2.474h261.183c9.312,0,16.928,7.587,16.928,16.861v373.337c0,9.272-7.615,16.859-16.928,16.859
			H19.409c-9.313,0-16.93-7.587-16.93-16.859V19.335C2.479,10.061,10.095,2.474,19.409,2.474L19.409,2.474z"/>
		<path fill="#C6C6C6" d="M280.592,412H19.409C8.707,412,0,403.33,0,392.672V19.335C0,8.677,8.707,0.005,19.409,0.005h261.183
			c10.701,0,19.406,8.672,19.406,19.33v373.337C299.998,403.33,291.293,412,280.592,412z M19.409,4.943
			c-7.968,0-14.451,6.457-14.451,14.392v373.337c0,7.935,6.483,14.391,14.451,14.391h261.183c7.969,0,14.449-6.456,14.449-14.391
			V19.335c0-7.936-6.48-14.392-14.449-14.392H19.409z"/>
	</g>
	<g>
		<path fill-rule="evenodd" clip-rule="evenodd" fill="#E30613" d="M153.316,372.251l-28.708-33.733
			c-19.588-23.02-65.15-63.563-58.21-99.545c6.732-34.908,66.741-39.787,79.128-13.165c1.885,4.049,2.493,7.252,4.057,8.845
			c0.811,0.879,1.854,1.319,3.071,1.319c1.678,0,2.953-0.44,3.764-1.319c1.682-1.703,1.891-5.411,4.402-8.845
			c30.506-41.679,100.682-0.483,73.529,48.009c-5.412,9.67-12.973,17.784-26.898,34.396c-13.932,16.623-22.115,27.251-25.605,31.261
			L153.316,372.251L153.316,372.251z"/>
	</g>
	<g>
		<path fill="#E30613" d="M99.211,83.348c3.677,2.625,7.699,4.731,12.034,6.271l-5.531,10.587c-2.273-0.674-4.494-1.605-6.659-2.78
			c-0.488-0.24-3.816-2.434-10.007-6.582c-4.89,2.126-10.284,3.179-16.215,3.179c-11.447,0-20.414-3.351-26.899-10.071
			c-6.487-6.703-9.729-16.133-9.729-28.276c0-12.124,3.243-21.537,9.746-28.274c6.503-6.719,15.331-10.087,26.483-10.087
			c11.031,0,19.787,3.369,26.256,10.087c6.469,6.737,9.712,16.15,9.712,28.274c0,6.41-0.901,12.039-2.687,16.896
			C104.345,76.284,102.176,79.875,99.211,83.348L99.211,83.348z M87.107,74.9c1.941-2.262,3.381-4.992,4.351-8.202
			c0.953-3.196,1.441-6.875,1.441-11.022c0-8.583-1.891-14.975-5.69-19.208c-3.799-4.229-8.757-6.355-14.88-6.355
			c-6.138,0-11.099,2.126-14.915,6.375c-3.815,4.25-5.723,10.638-5.723,19.188c0,8.653,1.908,15.15,5.723,19.45
			c3.816,4.3,8.618,6.46,14.447,6.46c2.168,0,4.232-0.361,6.158-1.07c-3.053-1.987-6.158-3.541-9.296-4.664l4.212-8.549
			C77.879,68.994,82.613,71.515,87.107,74.9L87.107,74.9z"/>
	</g>
	<g>
		<path fill-rule="evenodd" clip-rule="evenodd" fill="#E30613" d="M71.207,174.743l-12.871-14.614
			c-8.783-9.97-29.207-27.534-26.098-43.122c3.019-15.119,29.918-17.233,35.476-5.7c0.844,1.753,1.116,3.14,1.816,3.831
			c0.363,0.381,0.831,0.57,1.378,0.57c0.751,0,1.324-0.188,1.687-0.57c0.754-0.737,0.847-2.346,1.973-3.831
			c13.678-18.055,45.136-0.212,32.966,20.797c-2.43,4.188-5.817,7.703-12.06,14.899c-6.248,7.202-9.916,11.808-11.478,13.541
			L71.207,174.743L71.207,174.743z"/>
	</g>
</g>
</svg>
