<?xml version="1.0" encoding="utf-8"?>
<!-- Generator: Adobe Illustrator 15.1.0, SVG Export Plug-In . SVG Version: 6.00 Build 0)  -->
<!DOCTYPE svg PUBLIC "-//W3C//DTD SVG 1.1//EN" "http://www.w3.org/Graphics/SVG/1.1/DTD/svg11.dtd">
<svg version="1.1" id="Layer_1" xmlns="http://www.w3.org/2000/svg" xmlns:xlink="http://www.w3.org/1999/xlink" x="0px" y="0px"
	 width="300px" height="412px" viewBox="0 0 300 412" enable-background="new 0 0 300 412" xml:space="preserve">
<g>
	<g>
		<path fill="#FFFFFF" d="M19.407,2.471h261.185c9.312,0,16.928,7.587,16.928,16.86v373.338c0,9.276-7.615,16.862-16.928,16.862
			H19.407c-9.312,0-16.928-7.586-16.928-16.862V19.331C2.479,10.058,10.096,2.471,19.407,2.471L19.407,2.471z"/>
		<path fill="#C6C6C6" d="M280.592,412H19.407C8.706,412,0,403.328,0,392.669V19.331C0,8.674,8.706,0.002,19.407,0.002h261.185
			c10.701,0,19.406,8.672,19.406,19.329v373.338C299.999,403.328,291.293,412,280.592,412z M19.407,4.94
			c-7.968,0-14.45,6.456-14.45,14.391v373.338c0,7.937,6.482,14.394,14.45,14.394h261.185c7.969,0,14.449-6.457,14.449-14.394
			V19.331c0-7.935-6.48-14.391-14.449-14.391H19.407z"/>
	</g>
	<g>
		<path d="M189.104,375.104l-75.452-0.797c27.258-13.933,34.53-29.842,33.234-55.779c-0.182-3.687-0.405-6.941-0.704-7.442
			c-1.232-2.067-14.085,11.115-15.412,12.908c-10.034,13.552-55.068,24.463-64.388-11.255
			c-6.707-25.699,17.838-41.127,41.552-37.741c4.986,0.711,14.004,5.341,21.018,11.601c6.585,5.885,9.839,12.623,15.831,12.898
			c9.139,0.418-5.807-21.537-11.267-27.335c-23.365-24.819-17.647-66.631,19.063-66.631c35.56,0,40.044,36.25,17.262,65.196
			c-4.584,5.82-18.425,22.924-11.339,28.236c1.702,1.277,6.857-1.498,12.018-7.076c9.185-9.929,22.711-18.547,36.737-18.547
			c15.282,0,29.086,10.062,31.21,25.69c3.203,23.559-10.339,38.051-33.164,39.415c-23.222,1.387-40.025-27.366-46.207-27.366
			c-1.146,0-1.615,3.255-1.773,6.853C156.02,348.225,163.459,359.629,189.104,375.104L189.104,375.104z"/>
	</g>
	<g>
		<path d="M78.741,177.289l-35.734-0.358c12.909-6.27,16.353-13.43,15.74-25.103c-0.088-1.661-0.193-3.125-0.334-3.351
			c-0.583-0.931-6.671,5.002-7.298,5.809c-4.753,6.101-26.081,11.01-30.495-5.067c-3.176-11.563,8.448-18.509,19.68-16.984
			c2.36,0.322,6.63,2.404,9.953,5.222c3.118,2.646,4.661,5.681,7.497,5.804c4.329,0.188-2.75-9.693-5.335-12.304
			c-11.064-11.168-8.356-29.989,9.029-29.989c16.839,0,18.963,16.315,8.174,29.344c-2.17,2.62-8.726,10.316-5.371,12.709
			c0.806,0.573,3.249-0.675,5.692-3.185c4.349-4.469,10.755-8.349,17.399-8.349c7.238,0,13.774,4.529,14.78,11.564
			c1.517,10.603-4.896,17.125-15.706,17.74c-10.998,0.624-18.957-12.318-21.883-12.318c-0.543,0-0.767,1.465-0.839,3.084
			C63.072,165.192,66.597,170.325,78.741,177.289L78.741,177.289z"/>
	</g>
</g>
<g>
	<path d="M49.796,89.958H35.411V43.963h-17.83V33.124C27.61,33.327,36.83,29.883,38.35,19.042h11.447L49.796,89.958L49.796,89.958z"
		/>
	<path d="M86.369,17.624c14.184,0,26.137,8.915,26.137,36.572c0,28.266-11.954,37.18-26.137,37.18
		c-13.98,0-25.935-8.915-25.935-37.18C60.435,26.539,72.389,17.624,86.369,17.624z M86.369,79.523
		c11.752,0,11.752-17.323,11.752-25.327c0-7.396,0-24.719-11.752-24.719C74.82,29.477,74.82,46.8,74.82,54.196
		C74.82,62.2,74.82,79.523,86.369,79.523z"/>
</g>
</svg>
