<?xml version="1.0" encoding="utf-8"?>
<!-- Generator: Adobe Illustrator 15.1.0, SVG Export Plug-In . SVG Version: 6.00 Build 0)  -->
<!DOCTYPE svg PUBLIC "-//W3C//DTD SVG 1.1//EN" "http://www.w3.org/Graphics/SVG/1.1/DTD/svg11.dtd">
<svg version="1.1" id="Layer_1" xmlns="http://www.w3.org/2000/svg" xmlns:xlink="http://www.w3.org/1999/xlink" x="0px" y="0px"
	 width="300px" height="412px" viewBox="0 0 300 412" enable-background="new 0 0 300 412" xml:space="preserve">
<g>
	<g>
		<path fill="#FFFFFF" d="M19.409,2.475h261.185c9.311,0,16.928,7.586,16.928,16.859v373.335c0,9.276-7.617,16.862-16.928,16.862
			H19.409c-9.311,0-16.93-7.586-16.93-16.862V19.334C2.479,10.061,10.098,2.475,19.409,2.475L19.409,2.475z"/>
		<path fill="#C6C6C6" d="M280.594,412H19.409C8.707,412,0,403.328,0,392.669V19.334C0,8.677,8.707,0.006,19.409,0.006h261.185
			C291.295,0.006,300,8.677,300,19.334v373.335C300,403.328,291.295,412,280.594,412z M19.409,4.944
			c-7.968,0-14.451,6.456-14.451,14.39v373.335c0,7.937,6.483,14.394,14.451,14.394h261.185c7.967,0,14.449-6.457,14.449-14.394
			V19.334c0-7.935-6.482-14.39-14.449-14.39H19.409z"/>
	</g>
	<g>
		<path fill-rule="evenodd" clip-rule="evenodd" fill="#E30613" d="M148.795,208.309c23.061,29.568,51.256,56.675,82.334,82.399
			c-30.227,26.657-60.197,53.397-82.334,82.635c-30.709-36.593-59.262-60.449-84.035-82.635
			C89.094,269.358,118.015,242.706,148.795,208.309L148.795,208.309z"/>
	</g>
	<g>
		<path fill-rule="evenodd" clip-rule="evenodd" fill="#E30613" d="M59.974,105.374c10.495,13.456,23.328,25.793,37.471,37.499
			c-13.754,12.132-27.396,24.302-37.471,37.612c-13.975-16.655-26.97-27.514-38.247-37.612
			C32.803,133.158,45.965,121.027,59.974,105.374L59.974,105.374z"/>
	</g>
	<g>
		<path fill="#E30613" d="M81.655,80.363v13.183H33.974c0.527-4.981,2.066-9.701,4.657-14.165c2.58-4.464,7.686-10.377,15.283-17.75
			c6.149-5.947,9.899-9.997,11.286-12.116c1.868-2.931,2.809-5.826,2.809-8.687c0-3.154-0.811-5.582-2.444-7.29
			c-1.639-1.705-3.883-2.55-6.758-2.55c-2.844,0-5.088,0.895-6.775,2.671c-1.667,1.792-2.643,4.757-2.906,8.894l-13.55-1.415
			c0.811-7.807,3.34-13.407,7.6-16.819c4.263-3.396,9.584-5.103,15.977-5.103c7.004,0,12.507,1.983,16.507,5.911
			c3.997,3.947,5.996,8.842,5.996,14.702c0,3.324-0.579,6.496-1.718,9.511c-1.14,3.018-2.957,6.171-5.438,9.463
			c-1.65,2.188-4.624,5.342-8.903,9.445c-4.295,4.103-7.022,6.841-8.162,8.185c-1.14,1.344-2.081,2.654-2.792,3.93H81.655
			L81.655,80.363z"/>
	</g>
</g>
</svg>
