<?xml version="1.0" encoding="utf-8"?>
<!-- Generator: Adobe Illustrator 15.1.0, SVG Export Plug-In . SVG Version: 6.00 Build 0)  -->
<!DOCTYPE svg PUBLIC "-//W3C//DTD SVG 1.1//EN" "http://www.w3.org/Graphics/SVG/1.1/DTD/svg11.dtd">
<svg version="1.1" id="Layer_1" xmlns="http://www.w3.org/2000/svg" xmlns:xlink="http://www.w3.org/1999/xlink" x="0px" y="0px"
	 width="300px" height="412px" viewBox="0 0 300 412" enable-background="new 0 0 300 412" xml:space="preserve">
<g>
	<g>
		<path fill="#FFFFFF" d="M19.409,2.473h261.183c9.312,0,16.928,7.587,16.928,16.86v373.336c0,9.276-7.615,16.862-16.928,16.862
			H19.409c-9.313,0-16.93-7.586-16.93-16.862V19.333C2.479,10.06,10.095,2.473,19.409,2.473L19.409,2.473z"/>
		<path fill="#C6C6C6" d="M280.592,412H19.409C8.707,412,0,403.328,0,392.669V19.333C0,8.675,8.707,0.004,19.409,0.004h261.183
			c10.701,0,19.406,8.671,19.406,19.329v373.336C299.998,403.328,291.293,412,280.592,412z M19.409,4.942
			c-7.968,0-14.451,6.456-14.451,14.391v373.336c0,7.937,6.483,14.394,14.451,14.394h261.183c7.969,0,14.449-6.457,14.449-14.394
			V19.333c0-7.935-6.48-14.391-14.449-14.391H19.409z"/>
	</g>
	<g>
		<path fill="#E30613" d="M34.594,74.238l13.936-1.65c0.454,3.49,1.645,6.152,3.606,7.993c1.942,1.855,4.306,2.783,7.074,2.783
			c2.974,0,5.477-1.118,7.509-3.334c2.03-2.217,3.044-5.191,3.044-8.956c0-3.558-0.963-6.375-2.922-8.457
			c-1.941-2.095-4.323-3.128-7.124-3.128c-1.84,0-4.045,0.346-6.619,1.05l1.596-11.515c3.903,0.085,6.876-0.74,8.927-2.494
			c2.047-1.77,3.082-4.107,3.082-7.03c0-2.492-0.754-4.47-2.26-5.946c-1.505-1.479-3.518-2.218-6.004-2.218
			c-2.468,0-4.569,0.842-6.302,2.525c-1.751,1.668-2.817,4.126-3.186,7.341l-13.287-2.201c0.927-4.468,2.311-8.045,4.184-10.708
			c1.854-2.665,4.465-4.763,7.79-6.291C50.98,20.473,54.71,19.7,58.84,19.7c7.09,0,12.759,2.218,17.031,6.652
			c3.519,3.626,5.287,7.716,5.287,12.289c0,6.481-3.606,11.653-10.817,15.504c4.306,0.91,7.736,2.939,10.327,6.102
			c2.574,3.145,3.87,6.961,3.87,11.429c0,6.481-2.415,11.999-7.229,16.57c-4.813,4.555-10.821,6.841-17.996,6.841
			c-6.809,0-12.448-1.925-16.93-5.759C37.905,85.48,35.314,80.459,34.594,74.238L34.594,74.238z"/>
	</g>
	<g>
		<path fill-rule="evenodd" clip-rule="evenodd" fill="#E30613" d="M152.301,372.475l-28.708-33.732
			c-19.589-23.021-65.147-63.565-58.207-99.546c6.729-34.905,66.738-39.785,79.128-13.163c1.882,4.046,2.492,7.252,4.054,8.846
			c0.811,0.879,1.853,1.317,3.07,1.317c1.678,0,2.953-0.438,3.764-1.317c1.682-1.706,1.891-5.412,4.402-8.846
			c30.51-41.679,100.682-0.484,73.533,48.008c-5.414,9.67-12.973,17.784-26.898,34.398c-13.936,16.622-22.115,27.252-25.605,31.258
			L152.301,372.475L152.301,372.475z"/>
	</g>
	<g>
		<path fill-rule="evenodd" clip-rule="evenodd" fill="#E30613" d="M61.882,176.001l-12.87-14.614
			c-8.782-9.974-29.207-27.535-26.095-43.123c3.017-15.12,29.918-17.233,35.476-5.701c0.841,1.752,1.116,3.141,1.816,3.832
			c0.363,0.381,0.831,0.571,1.375,0.571c0.754,0,1.324-0.189,1.69-0.571c0.751-0.739,0.847-2.346,1.973-3.832
			c13.674-18.056,45.136-0.21,32.966,20.795c-2.43,4.19-5.817,7.706-12.06,14.902c-6.248,7.2-9.916,11.805-11.481,13.541
			L61.882,176.001L61.882,176.001z"/>
	</g>
</g>
</svg>
