<?xml version="1.0" encoding="utf-8"?>
<!-- Generator: Adobe Illustrator 15.1.0, SVG Export Plug-In . SVG Version: 6.00 Build 0)  -->
<!DOCTYPE svg PUBLIC "-//W3C//DTD SVG 1.1//EN" "http://www.w3.org/Graphics/SVG/1.1/DTD/svg11.dtd">
<svg version="1.1" id="Layer_1" xmlns="http://www.w3.org/2000/svg" xmlns:xlink="http://www.w3.org/1999/xlink" x="0px" y="0px"
	 width="300px" height="412px" viewBox="0 0 300 412" enable-background="new 0 0 300 412" xml:space="preserve">
<g>
	<g>
		<path fill="#FFFFFF" d="M19.406,2.477h261.182c9.311,0,16.93,7.587,16.93,16.861v373.333c0,9.274-7.619,16.86-16.93,16.86H19.406
			c-9.31,0-16.927-7.586-16.927-16.86V19.338C2.479,10.063,10.096,2.477,19.406,2.477L19.406,2.477z"/>
		<path fill="#C6C6C6" d="M280.588,412H19.406C8.706,412,0,403.329,0,392.671V19.338C0,8.679,8.706,0.008,19.406,0.008h261.182
			c10.703,0,19.41,8.671,19.41,19.33v373.333C299.998,403.329,291.291,412,280.588,412z M19.406,4.946
			c-7.967,0-14.448,6.457-14.448,14.392v373.333c0,7.936,6.481,14.392,14.448,14.392h261.182c7.969,0,14.451-6.456,14.451-14.392
			V19.338c0-7.936-6.482-14.392-14.451-14.392H19.406z"/>
	</g>
	<g>
		<path d="M35.584,76.456l13.856-1.453c0.392,3.203,1.574,5.746,3.515,7.616c1.944,1.887,4.193,2.822,6.728,2.822
			c2.908,0,5.374-1.213,7.384-3.619c2.012-2.422,3.027-6.075,3.027-10.941c0-4.551-0.997-7.979-3.007-10.264
			c-1.996-2.284-4.598-3.426-7.793-3.426c-3.988,0-7.571,1.816-10.746,5.434l-11.291-1.68l7.132-38.687h36.79v13.327H54.934
			l-2.18,12.637c3.11-1.593,6.271-2.388,9.514-2.388c6.168,0,11.41,2.301,15.685,6.888c4.292,4.605,6.437,10.577,6.437,17.916
			c0,6.11-1.724,11.58-5.187,16.375c-4.731,6.561-11.274,9.833-19.653,9.833c-6.713,0-12.17-1.835-16.394-5.522
			C38.928,87.638,36.395,82.687,35.584,76.456L35.584,76.456z"/>
	</g>
	<g>
		<path fill-rule="evenodd" clip-rule="evenodd" d="M147.603,326.537c0.08-3.038-0.408-3.419-2.483-2.598l-16.675,13.817
			c-33.679,26.971-84.185-12.822-47.077-56.201c26.616-25.106,51.216-48.797,69.971-73.334
			c18.514,22.467,39.074,45.374,65.381,70.068c18.756,18.079,23.408,37.37,9.801,57.39c-26.072,20.014-48.807,9.87-66.02-7.567
			c-2.324-2.354-5.539-7.838-5.695-1.11c2.895,27.325,11.604,36.531,35.584,47.888l-76.963-0.153
			C138.254,362.66,146.231,353.777,147.603,326.537L147.603,326.537z"/>
	</g>
	<g>
		<path fill-rule="evenodd" clip-rule="evenodd" d="M58.633,157.655c0.037-1.375-0.184-1.549-1.125-1.177l-7.555,6.26
			c-15.26,12.22-38.142-5.81-21.33-25.463c12.06-11.375,23.204-22.11,31.702-33.229c8.388,10.181,17.706,20.56,29.624,31.749
			c8.498,8.19,10.607,16.932,4.438,26c-11.809,9.069-22.111,4.473-29.909-3.427c-1.055-1.066-2.512-3.55-2.583-0.503
			c1.312,12.382,5.258,16.552,16.124,21.699l-34.871-0.07C54.398,174.021,58.013,169.997,58.633,157.655L58.633,157.655z"/>
	</g>
</g>
</svg>
