<?xml version="1.0" encoding="utf-8"?>
<!-- Generator: Adobe Illustrator 15.1.0, SVG Export Plug-In . SVG Version: 6.00 Build 0)  -->
<!DOCTYPE svg PUBLIC "-//W3C//DTD SVG 1.1//EN" "http://www.w3.org/Graphics/SVG/1.1/DTD/svg11.dtd">
<svg version="1.1" id="Layer_1" xmlns="http://www.w3.org/2000/svg" xmlns:xlink="http://www.w3.org/1999/xlink" x="0px" y="0px"
	 width="300px" height="412px" viewBox="0 0 300 412" enable-background="new 0 0 300 412" xml:space="preserve">
<g>
	<g>
		<path fill="#FFFFFF" d="M19.407,2.471h261.187c9.311,0,16.928,7.586,16.928,16.861v373.339c0,9.274-7.617,16.86-16.928,16.86
			H19.407c-9.311,0-16.928-7.586-16.928-16.86V19.332C2.479,10.057,10.096,2.471,19.407,2.471L19.407,2.471z"/>
		<path fill="#C6C6C6" d="M280.594,412H19.407C8.706,412,0,403.329,0,392.671V19.332C0,8.674,8.706,0.002,19.407,0.002h261.187
			c10.701,0,19.406,8.672,19.406,19.33v373.339C300,403.329,291.295,412,280.594,412z M19.407,4.94
			c-7.968,0-14.45,6.457-14.45,14.392v373.339c0,7.936,6.482,14.392,14.45,14.392h261.187c7.967,0,14.449-6.456,14.449-14.392
			V19.332c0-7.936-6.482-14.392-14.449-14.392H19.407z"/>
	</g>
	<g>
		<path d="M86.048,40.354l-14.17,1.526c-0.337-2.845-1.243-4.942-2.702-6.313c-1.457-1.352-3.359-2.029-5.688-2.029
			c-3.076,0-5.688,1.354-7.841,4.075c-2.132,2.706-3.465,8.342-4.036,16.91c3.663-4.198,8.178-6.296,13.601-6.296
			c6.116,0,11.343,2.272,15.697,6.816c4.356,4.527,6.543,10.389,6.543,17.57c0,7.63-2.293,13.735-6.88,18.349
			c-4.568,4.596-10.472,6.902-17.654,6.902c-7.698,0-14.045-2.912-19.003-8.758c-4.961-5.844-7.45-15.417-7.45-28.739
			c0-13.648,2.578-23.482,7.752-29.516c5.172-6.037,11.892-9.054,20.16-9.054c5.794,0,10.595,1.595,14.399,4.751
			C82.583,29.723,85,34.319,86.048,40.354L86.048,40.354z M52.875,71.503c0,4.63,1.084,8.22,3.271,10.735
			c2.188,2.532,4.693,3.797,7.501,3.797c2.721,0,4.961-1.039,6.774-3.104c1.812-2.063,2.701-5.461,2.701-10.164
			c0-4.837-0.958-8.393-2.915-10.647c-1.939-2.254-4.374-3.382-7.29-3.382c-2.808,0-5.19,1.075-7.13,3.225
			C53.835,64.115,52.875,67.305,52.875,71.503L52.875,71.503z"/>
	</g>
	<g>
		<path fill-rule="evenodd" clip-rule="evenodd" d="M191.523,380.508l-75.453-0.796c27.259-13.932,34.531-29.84,33.234-55.778
			c-0.183-3.686-0.405-6.941-0.705-7.443c-1.231-2.067-14.084,11.115-15.411,12.908c-10.034,13.551-55.068,24.462-64.388-11.257
			c-6.707-25.699,17.838-41.125,41.551-37.74c4.987,0.712,14.004,5.343,21.018,11.604c6.585,5.88,9.839,12.621,15.831,12.896
			c9.14,0.417-5.808-21.536-11.267-27.335c-23.365-24.819-17.647-66.631,19.063-66.631c35.559,0,40.043,36.25,17.26,65.195
			c-4.582,5.822-18.424,22.926-11.336,28.238c1.701,1.276,6.857-1.498,12.016-7.075c9.186-9.927,22.711-18.548,36.738-18.548
			c15.283,0,29.086,10.062,31.211,25.693c3.201,23.557-10.34,38.05-33.164,39.414c-23.225,1.387-40.027-27.368-46.209-27.368
			c-1.146,0-1.617,3.257-1.771,6.854C158.438,353.629,165.879,365.034,191.523,380.508L191.523,380.508z"/>
	</g>
	<g>
		<path fill-rule="evenodd" clip-rule="evenodd" d="M81.16,182.794l-35.734-0.356c12.909-6.271,16.353-13.432,15.74-25.105
			c-0.087-1.659-0.192-3.125-0.334-3.351c-0.583-0.93-6.67,5.003-7.298,5.81c-4.753,6.1-26.081,11.011-30.495-5.066
			c-3.176-11.565,8.448-18.51,19.68-16.985c2.36,0.32,6.63,2.403,9.953,5.222c3.118,2.648,4.66,5.681,7.497,5.803
			c4.329,0.189-2.75-9.692-5.335-12.303c-11.064-11.168-8.357-29.989,9.029-29.989c16.839,0,18.964,16.317,8.174,29.344
			c-2.17,2.62-8.726,10.317-5.371,12.709c0.807,0.574,3.249-0.674,5.693-3.185c4.349-4.467,10.755-8.347,17.398-8.347
			c7.239,0,13.775,4.528,14.781,11.563c1.517,10.601-4.896,17.125-15.706,17.738c-10.998,0.625-18.957-12.315-21.884-12.315
			c-0.542,0-0.767,1.465-0.839,3.083C65.49,170.698,69.015,175.831,81.16,182.794L81.16,182.794z"/>
	</g>
</g>
</svg>
