<?xml version="1.0" encoding="utf-8"?>
<!-- Generator: Adobe Illustrator 15.1.0, SVG Export Plug-In . SVG Version: 6.00 Build 0)  -->
<!DOCTYPE svg PUBLIC "-//W3C//DTD SVG 1.1//EN" "http://www.w3.org/Graphics/SVG/1.1/DTD/svg11.dtd">
<svg version="1.1" id="Layer_1" xmlns="http://www.w3.org/2000/svg" xmlns:xlink="http://www.w3.org/1999/xlink" x="0px" y="0px"
	 width="300px" height="412px" viewBox="0 0 300 412" enable-background="new 0 0 300 412" xml:space="preserve">
<g>
	<g>
		<path fill="#FFFFFF" d="M19.407,2.472h261.185c9.312,0,16.928,7.587,16.928,16.858v373.339c0,9.275-7.615,16.862-16.928,16.862
			H19.407c-9.312,0-16.928-7.587-16.928-16.862V19.33C2.479,10.059,10.096,2.472,19.407,2.472L19.407,2.472z"/>
		<path fill="#C6C6C6" d="M280.592,412H19.407C8.706,412,0,403.328,0,392.669V19.33C0,8.674,8.706,0.003,19.407,0.003h261.185
			c10.701,0,19.406,8.671,19.406,19.327v373.339C299.998,403.328,291.293,412,280.592,412z M19.407,4.941
			c-7.968,0-14.45,6.455-14.45,14.389v373.339c0,7.937,6.482,14.394,14.45,14.394h261.185c7.969,0,14.449-6.457,14.449-14.394V19.33
			c0-7.934-6.48-14.389-14.449-14.389H19.407z"/>
	</g>
	<g>
		<path fill-rule="evenodd" clip-rule="evenodd" d="M187.941,377.729l-74.448-0.784c26.897-13.744,34.071-29.441,32.792-55.036
			c-0.182-3.637-0.4-6.85-0.696-7.344c-1.213-2.038-13.896,10.97-15.206,12.736c-9.899,13.372-54.335,24.137-63.531-11.107
			c-6.616-25.357,17.602-40.577,40.999-37.237c4.92,0.702,13.818,5.271,20.738,11.448c6.498,5.802,9.71,12.455,15.62,12.725
			c9.02,0.413-5.729-21.248-11.117-26.972c-23.051-24.486-17.412-65.745,18.812-65.745c35.084,0,39.508,35.769,17.027,64.33
			c-4.52,5.743-18.176,22.619-11.186,27.863c1.68,1.261,6.768-1.48,11.857-6.983c9.062-9.798,22.408-18.302,36.248-18.302
			c15.082,0,28.701,9.928,30.797,25.352c3.16,23.245-10.203,37.544-32.723,38.89c-22.914,1.369-39.492-27.003-45.594-27.003
			c-1.133,0-1.596,3.214-1.75,6.763C155.297,351.21,162.639,362.465,187.941,377.729L187.941,377.729z"/>
	</g>
	<g>
		<path fill-rule="evenodd" clip-rule="evenodd" d="M78.741,182.057l-35.734-0.357c12.909-6.269,16.353-13.428,15.74-25.104
			c-0.088-1.66-0.193-3.125-0.334-3.351c-0.583-0.929-6.671,5.003-7.298,5.811c-4.753,6.099-26.081,11.009-30.495-5.065
			c-3.176-11.568,8.448-18.51,19.68-16.986c2.36,0.319,6.63,2.402,9.953,5.221c3.118,2.645,4.661,5.681,7.497,5.805
			c4.329,0.188-2.75-9.692-5.335-12.304c-11.064-11.169-8.356-29.988,9.029-29.988c16.839,0,18.963,16.314,8.174,29.341
			c-2.17,2.623-8.726,10.32-5.371,12.711c0.806,0.573,3.249-0.675,5.692-3.185c4.349-4.466,10.755-8.349,17.399-8.349
			c7.238,0,13.774,4.529,14.78,11.564c1.517,10.602-4.896,17.124-15.706,17.739c-10.998,0.624-18.957-12.318-21.883-12.318
			c-0.543,0-0.767,1.465-0.839,3.086C63.072,169.962,66.597,175.092,78.741,182.057L78.741,182.057z"/>
	</g>
	<g>
		<path d="M37.096,79.088l13.512-1.573c0.34,2.897,1.205,5.042,2.596,6.438c1.389,1.395,3.222,2.092,5.511,2.092
			c2.882,0,5.324-1.395,7.341-4.184c2.034-2.79,3.322-8.586,3.882-17.401c-3.51,4.308-7.901,6.457-13.158,6.457
			c-5.729,0-10.68-2.344-14.834-6.994c-4.155-4.667-6.24-10.732-6.24-18.205c0-7.798,2.205-14.075,6.596-18.849
			c4.375-4.757,9.969-7.155,16.751-7.155c7.392,0,13.446,3.021,18.193,9.049c4.73,6.028,7.104,15.933,7.104,29.723
			c0,14.058-2.475,24.179-7.409,30.402c-4.934,6.206-11.361,9.317-19.278,9.317c-5.697,0-10.292-1.592-13.801-4.791
			C40.351,90.212,38.097,85.438,37.096,79.088L37.096,79.088z M68.701,46.915c0-4.757-1.035-8.441-3.102-11.053
			c-2.071-2.629-4.478-3.934-7.19-3.934c-2.577,0-4.73,1.073-6.425,3.219c-1.712,2.146-2.561,5.669-2.561,10.571
			c0,4.952,0.934,8.6,2.782,10.91c1.847,2.323,4.17,3.483,6.95,3.483c2.681,0,4.951-1.107,6.782-3.342
			C67.785,54.532,68.701,51.243,68.701,46.915L68.701,46.915z"/>
	</g>
</g>
</svg>
