<?xml version="1.0" encoding="utf-8"?>
<!-- Generator: Adobe Illustrator 15.1.0, SVG Export Plug-In . SVG Version: 6.00 Build 0)  -->
<!DOCTYPE svg PUBLIC "-//W3C//DTD SVG 1.1//EN" "http://www.w3.org/Graphics/SVG/1.1/DTD/svg11.dtd">
<svg version="1.1" id="Layer_1" xmlns="http://www.w3.org/2000/svg" xmlns:xlink="http://www.w3.org/1999/xlink" x="0px" y="0px"
	 width="300px" height="412px" viewBox="0 0 300 412" enable-background="new 0 0 300 412" xml:space="preserve">
<g>
	<g>
		<path fill="#FFFFFF" d="M19.408,2.469h261.186c9.311,0,16.926,7.587,16.926,16.861v373.336c0,9.273-7.615,16.859-16.926,16.859
			H19.408c-9.312,0-16.929-7.586-16.929-16.859V19.33C2.479,10.056,10.095,2.469,19.408,2.469L19.408,2.469z"/>
		<path fill="#C6C6C6" d="M280.594,411.994H19.408C8.706,411.994,0,403.324,0,392.666V19.33C0,8.671,8.706,0,19.408,0h261.186
			c10.701,0,19.404,8.671,19.404,19.33v373.336C299.998,403.324,291.295,411.994,280.594,411.994z M19.408,4.938
			c-7.968,0-14.45,6.457-14.45,14.392v373.336c0,7.935,6.482,14.391,14.45,14.391h261.186c7.967,0,14.447-6.456,14.447-14.391V19.33
			c0-7.936-6.48-14.392-14.447-14.392H19.408z"/>
	</g>
	<g>
		<path fill-rule="evenodd" clip-rule="evenodd" fill="#E30613" d="M153.342,204.813c23.061,29.566,51.256,56.673,82.332,82.397
			c-30.225,26.659-60.197,53.396-82.332,82.639c-30.709-36.597-59.262-60.452-84.035-82.639
			C93.64,265.862,122.561,239.209,153.342,204.813L153.342,204.813z"/>
	</g>
	<g>
		<path fill="#E30613" d="M105.539,92.357H89.068l-6.54-17.017H52.576l-6.178,17.017H30.35l29.185-74.885h15.997L105.539,92.357
			L105.539,92.357z M77.678,62.733l-10.327-27.79l-10.118,27.79H77.678L77.678,62.733z"/>
	</g>
	<g>
		<path fill-rule="evenodd" clip-rule="evenodd" fill="#E30613" d="M68.453,101.536c10.494,13.459,23.328,25.794,37.471,37.503
			c-13.758,12.132-27.399,24.301-37.471,37.607c-13.979-16.655-26.973-27.511-38.247-37.607
			C41.281,129.321,54.443,117.192,68.453,101.536L68.453,101.536z"/>
	</g>
</g>
</svg>
