<?xml version="1.0" encoding="utf-8"?>
<!-- Generator: Adobe Illustrator 15.1.0, SVG Export Plug-In . SVG Version: 6.00 Build 0)  -->
<!DOCTYPE svg PUBLIC "-//W3C//DTD SVG 1.1//EN" "http://www.w3.org/Graphics/SVG/1.1/DTD/svg11.dtd">
<svg version="1.1" id="Layer_1" xmlns="http://www.w3.org/2000/svg" xmlns:xlink="http://www.w3.org/1999/xlink" x="0px" y="0px"
	 width="300px" height="412px" viewBox="0 0 300 412" enable-background="new 0 0 300 412" xml:space="preserve">
<g>
	<g>
		<path fill="#FFFFFF" d="M19.409,2.469h261.183c9.309,0,16.926,7.586,16.926,16.861v373.332c0,9.273-7.617,16.859-16.926,16.859
			H19.409c-9.311,0-16.93-7.586-16.93-16.859V19.33C2.479,10.055,10.098,2.469,19.409,2.469L19.409,2.469z"/>
		<path fill="#C6C6C6" d="M280.592,411.99H19.409C8.707,411.99,0,403.32,0,392.662V19.33C0,8.671,8.707,0,19.409,0h261.183
			c10.701,0,19.406,8.671,19.406,19.33v373.332C299.998,403.32,291.293,411.99,280.592,411.99z M19.409,4.938
			c-7.968,0-14.451,6.457-14.451,14.393v373.332c0,7.935,6.483,14.391,14.451,14.391h261.183c7.967,0,14.447-6.456,14.447-14.391
			V19.33c0-7.936-6.48-14.393-14.447-14.393H19.409z"/>
	</g>
	<g>
		<path fill-rule="evenodd" clip-rule="evenodd" d="M149.717,323.127c0.08-3.039-0.405-3.419-2.479-2.599l-16.675,13.818
			c-33.68,26.968-84.185-12.824-47.078-56.201c26.617-25.106,51.214-48.797,69.97-73.335c18.514,22.466,39.074,45.374,65.383,70.07
			c18.752,18.078,23.406,37.367,9.801,57.388c-26.072,20.013-48.811,9.868-66.021-7.569c-2.322-2.352-5.541-7.834-5.693-1.109
			c2.895,27.327,11.604,36.531,35.584,47.89l-76.962-0.154C140.369,359.249,148.348,350.367,149.717,323.127L149.717,323.127z"/>
	</g>
	<g>
		<path d="M107.176,92.355H90.709L84.167,75.34H54.213L48.04,92.355H31.99l29.183-74.883H77.17L107.176,92.355L107.176,92.355z
			 M79.319,62.733l-10.33-27.79l-10.117,27.79H79.319L79.319,62.733z"/>
	</g>
	<g>
		<path fill-rule="evenodd" clip-rule="evenodd" d="M67.112,155.142c0.037-1.377-0.182-1.55-1.123-1.177l-7.555,6.26
			c-15.259,12.219-38.142-5.811-21.331-25.465c12.062-11.375,23.205-22.105,31.704-33.228c8.389,10.181,17.703,20.56,29.624,31.749
			c8.495,8.19,10.604,16.932,4.438,26.002c-11.812,9.066-22.113,4.471-29.912-3.43c-1.052-1.064-2.512-3.549-2.58-0.502
			c1.311,12.381,5.256,16.553,16.124,21.697l-34.873-0.068C62.877,171.506,66.494,167.482,67.112,155.142L67.112,155.142z"/>
	</g>
</g>
</svg>
