<?xml version="1.0" encoding="utf-8"?>
<!-- Generator: Adobe Illustrator 15.1.0, SVG Export Plug-In . SVG Version: 6.00 Build 0)  -->
<!DOCTYPE svg PUBLIC "-//W3C//DTD SVG 1.1//EN" "http://www.w3.org/Graphics/SVG/1.1/DTD/svg11.dtd">
<svg version="1.1" id="Layer_1" xmlns="http://www.w3.org/2000/svg" xmlns:xlink="http://www.w3.org/1999/xlink" x="0px" y="0px"
	 width="300px" height="412px" viewBox="0 0 300 412" enable-background="new 0 0 300 412" xml:space="preserve">
<linearGradient id="SVGID_1_" gradientUnits="userSpaceOnUse" x1="293.7998" y1="403.9238" x2="6.2005" y2="8.0776">
	<stop  offset="0" style="stop-color:#2F536E"/>
	<stop  offset="1" style="stop-color:#85C7EE"/>
</linearGradient>
<path fill="url(#SVGID_1_)" d="M19.406,2.471h261.188c9.311,0,16.928,7.587,16.928,16.86v373.338
	c0,9.276-7.617,16.862-16.928,16.862H19.406c-9.311,0-16.928-7.586-16.928-16.862V19.331C2.479,10.058,10.095,2.471,19.406,2.471
	L19.406,2.471z"/>
<path fill="#FFFFFF" d="M280.594,412H19.406c-10.701,0-19.407-8.672-19.407-19.331V19.331c0-10.657,8.706-19.329,19.407-19.329
	h261.188C291.293,0.002,300,8.674,300,19.331v373.338C300,403.328,291.293,412,280.594,412z M19.406,4.94
	c-7.967,0-14.449,6.456-14.449,14.391v373.338c0,7.937,6.482,14.394,14.449,14.394h261.188c7.967,0,14.449-6.457,14.449-14.394
	V19.331c0-7.935-6.482-14.391-14.449-14.391H19.406z"/>
</svg>
