<?xml version="1.0" encoding="utf-8"?>
<!-- Generator: Adobe Illustrator 15.1.0, SVG Export Plug-In . SVG Version: 6.00 Build 0)  -->
<!DOCTYPE svg PUBLIC "-//W3C//DTD SVG 1.1//EN" "http://www.w3.org/Graphics/SVG/1.1/DTD/svg11.dtd">
<svg version="1.1" id="Layer_1" xmlns="http://www.w3.org/2000/svg" xmlns:xlink="http://www.w3.org/1999/xlink" x="0px" y="0px"
	 width="300px" height="412px" viewBox="0 0 300 412" enable-background="new 0 0 300 412" xml:space="preserve">
<g>
	<g>
		<path fill="#FFFFFF" d="M19.408,2.471h261.186c9.311,0,16.926,7.587,16.926,16.861v373.337c0,9.275-7.615,16.862-16.926,16.862
			H19.408c-9.312,0-16.929-7.587-16.929-16.862V19.332C2.479,10.058,10.095,2.471,19.408,2.471L19.408,2.471z"/>
		<path fill="#C6C6C6" d="M280.594,412H19.408C8.706,412,0,403.328,0,392.669V19.332C0,8.674,8.706,0.002,19.408,0.002h261.186
			c10.701,0,19.404,8.672,19.404,19.33v373.337C299.998,403.328,291.295,412,280.594,412z M19.408,4.94
			c-7.968,0-14.45,6.457-14.45,14.392v373.337c0,7.937,6.482,14.394,14.45,14.394h261.186c7.967,0,14.447-6.457,14.447-14.394
			V19.332c0-7.936-6.48-14.392-14.447-14.392H19.408z"/>
	</g>
	<g>
		<path fill-rule="evenodd" clip-rule="evenodd" fill="#E30613" d="M152.43,205.854c23.061,29.566,51.256,56.674,82.334,82.4
			c-30.229,26.656-60.197,53.396-82.334,82.635c-30.71-36.594-59.262-60.452-84.036-82.635
			C92.728,266.904,121.649,240.251,152.43,205.854L152.43,205.854z"/>
	</g>
	<g>
		<path fill="#E30613" d="M66.869,17.52h14.749v47.574c0,6.211-0.547,11.006-1.604,14.348c-1.431,4.375-4.022,7.892-7.79,10.535
			c-3.768,2.656-8.731,3.969-14.886,3.969c-7.228,0-12.784-2.063-16.691-6.228c-3.886-4.147-5.865-10.235-5.879-18.268l13.928-1.644
			c0.169,4.304,0.785,7.349,1.842,9.131c1.602,2.696,4.04,4.042,7.297,4.042c3.288,0,5.624-0.962,6.99-2.905
			c1.361-1.923,2.044-5.932,2.044-12.019V17.52L66.869,17.52z"/>
	</g>
	<g>
		<path fill-rule="evenodd" clip-rule="evenodd" fill="#E30613" d="M62.517,102.278c9.956,12.762,22.125,24.465,35.54,35.567
			c-13.046,11.508-25.984,23.05-35.54,35.669c-13.256-15.792-25.582-26.093-36.274-35.669
			C36.749,128.628,49.233,117.126,62.517,102.278L62.517,102.278z"/>
	</g>
</g>
</svg>
