<?xml version="1.0" encoding="utf-8"?>
<!-- Generator: Adobe Illustrator 15.1.0, SVG Export Plug-In . SVG Version: 6.00 Build 0)  -->
<!DOCTYPE svg PUBLIC "-//W3C//DTD SVG 1.1//EN" "http://www.w3.org/Graphics/SVG/1.1/DTD/svg11.dtd">
<svg version="1.1" id="Layer_1" xmlns="http://www.w3.org/2000/svg" xmlns:xlink="http://www.w3.org/1999/xlink" x="0px" y="0px"
	 width="300px" height="412px" viewBox="0 0 300 412" enable-background="new 0 0 300 412" xml:space="preserve">
<g>
	<g>
		<path fill="#FFFFFF" d="M19.408,2.471H280.59c9.314,0,16.93,7.587,16.93,16.861v373.337c0,9.275-7.615,16.862-16.93,16.862H19.408
			c-9.312,0-16.929-7.587-16.929-16.862V19.332C2.479,10.058,10.095,2.471,19.408,2.471L19.408,2.471z"/>
		<path fill="#C6C6C6" d="M280.59,412H19.408C8.706,412,0,403.328,0,392.669V19.332C0,8.674,8.706,0.002,19.408,0.002H280.59
			c10.703,0,19.408,8.672,19.408,19.33v373.337C299.998,403.328,291.293,412,280.59,412z M19.408,4.94
			c-7.968,0-14.45,6.457-14.45,14.392v373.337c0,7.937,6.482,14.394,14.45,14.394H280.59c7.969,0,14.451-6.457,14.451-14.394V19.332
			c0-7.936-6.482-14.392-14.451-14.392H19.408z"/>
	</g>
	<g>
		<path fill-rule="evenodd" clip-rule="evenodd" fill="#E30613" d="M154.822,369.475l-28.708-33.733
			c-19.589-23.021-65.147-63.562-58.208-99.547c6.73-34.905,66.738-39.784,79.129-13.163c1.882,4.05,2.491,7.253,4.053,8.847
			c0.811,0.877,1.854,1.317,3.07,1.317c1.678,0,2.953-0.44,3.766-1.317c1.68-1.703,1.889-5.413,4.4-8.847
			c30.508-41.678,100.682-0.482,73.533,48.009c-5.414,9.67-12.973,17.785-26.898,34.397c-13.934,16.622-22.115,27.252-25.605,31.261
			L154.822,369.475L154.822,369.475z"/>
	</g>
	<g>
		<path fill="#E30613" d="M67.245,17.52h14.747v47.574c0,6.211-0.544,11.006-1.602,14.348c-1.435,4.375-4.026,7.892-7.792,10.535
			c-3.768,2.656-8.729,3.969-14.883,3.969c-7.229,0-12.789-2.063-16.691-6.228c-3.887-4.147-5.866-10.235-5.882-18.268l13.93-1.644
			c0.17,4.304,0.782,7.349,1.84,9.131c1.602,2.696,4.04,4.042,7.297,4.042c3.292,0,5.627-0.962,6.99-2.905
			c1.364-1.923,2.047-5.932,2.047-12.019V17.52L67.245,17.52z"/>
	</g>
	<g>
		<path fill-rule="evenodd" clip-rule="evenodd" fill="#E30613" d="M65.349,173.36l-12.907-14.657
			c-8.808-10-29.295-27.615-26.174-43.25c3.025-15.166,30.009-17.285,35.58-5.718c0.848,1.756,1.119,3.151,1.822,3.843
			c0.366,0.381,0.833,0.573,1.38,0.573c0.754,0,1.33-0.192,1.693-0.573c0.757-0.74,0.85-2.352,1.979-3.843
			c13.72-18.109,45.272-0.211,33.065,20.857c-2.435,4.204-5.835,7.728-12.097,14.946c-6.265,7.223-9.945,11.842-11.512,13.581
			L65.349,173.36L65.349,173.36z"/>
	</g>
</g>
</svg>
