<?xml version="1.0" encoding="utf-8"?>
<!-- Generator: Adobe Illustrator 15.1.0, SVG Export Plug-In . SVG Version: 6.00 Build 0)  -->
<!DOCTYPE svg PUBLIC "-//W3C//DTD SVG 1.1//EN" "http://www.w3.org/Graphics/SVG/1.1/DTD/svg11.dtd">
<svg version="1.1" id="Layer_1" xmlns="http://www.w3.org/2000/svg" xmlns:xlink="http://www.w3.org/1999/xlink" x="0px" y="0px"
	 width="300px" height="412px" viewBox="0 0 300 412" enable-background="new 0 0 300 412" xml:space="preserve">
<g>
	<path fill="#FFFFFF" d="M19.408,2.475h261.186c9.311,0,16.928,7.587,16.928,16.861v373.336c0,9.273-7.617,16.859-16.928,16.859
		H19.408c-9.312,0-16.929-7.586-16.929-16.859V19.336C2.479,10.062,10.095,2.475,19.408,2.475L19.408,2.475z"/>
	<path fill="#C6C6C6" d="M280.593,412H19.408C8.706,412,0,403.33,0,392.672V19.336C0,8.677,8.706,0.006,19.408,0.006h261.186
		c10.701,0,19.405,8.671,19.405,19.33v373.336C299.999,403.33,291.294,412,280.593,412z M19.408,4.944
		c-7.968,0-14.45,6.457-14.45,14.392v373.336c0,7.936,6.482,14.391,14.45,14.391h261.186c7.967,0,14.448-6.455,14.448-14.391V19.336
		c0-7.936-6.481-14.392-14.448-14.392H19.408z"/>
</g>
<g>
	<path fill="#E30613" d="M153.341,204.819c23.062,29.566,51.257,56.673,82.332,82.397c-30.225,26.659-60.196,53.396-82.332,82.64
		c-30.708-36.598-59.262-60.453-84.035-82.64C93.64,265.868,122.561,239.215,153.341,204.819L153.341,204.819z"/>
</g>
<g>
	<path fill="#E30613" d="M68.453,101.542c10.494,13.459,23.328,25.794,37.471,37.503c-13.758,12.132-27.399,24.301-37.471,37.607
		c-13.979-16.655-26.973-27.511-38.247-37.607C41.281,129.327,54.443,117.198,68.453,101.542L68.453,101.542z"/>
</g>
<g>
	<path fill="#E30613" d="M49.796,89.958H35.411V43.963h-17.83V33.124C27.61,33.327,36.83,29.883,38.35,19.042h11.447L49.796,89.958
		L49.796,89.958z"/>
	<path fill="#E30613" d="M86.369,17.624c14.184,0,26.137,8.915,26.137,36.572c0,28.266-11.954,37.18-26.137,37.18
		c-13.98,0-25.935-8.915-25.935-37.18C60.435,26.539,72.389,17.624,86.369,17.624z M86.369,79.523
		c11.752,0,11.752-17.323,11.752-25.327c0-7.396,0-24.719-11.752-24.719C74.82,29.477,74.82,46.8,74.82,54.196
		C74.82,62.2,74.82,79.523,86.369,79.523z"/>
</g>
</svg>
